solid ASCII
  facet normal -2.865525e-17 -1.765837e-17 1.000000e+00
    outer loop
      vertex   -4.009305e+01 -6.565314e+01 1.600000e+00
      vertex   -3.344238e+01 -6.387110e+01 1.600000e+00
      vertex   -4.605451e+01 -4.340467e+01 1.600000e+00
    endloop
  endfacet
  facet normal -1.949410e-16 -1.201295e-16 1.000000e+00
    outer loop
      vertex   -4.605451e+01 -4.340467e+01 1.600000e+00
      vertex   -3.344238e+01 -6.387110e+01 1.600000e+00
      vertex   -4.513488e+01 -4.304863e+01 1.600000e+00
    endloop
  endfacet
  facet normal 3.092883e-18 -8.926946e-18 1.000000e+00
    outer loop
      vertex   -4.513488e+01 -4.304863e+01 1.600000e+00
      vertex   -3.344238e+01 -6.387110e+01 1.600000e+00
      vertex   -4.420308e+01 -4.272579e+01 1.600000e+00
    endloop
  endfacet
  facet normal 2.786413e-18 -9.082907e-18 1.000000e+00
    outer loop
      vertex   -4.420308e+01 -4.272579e+01 1.600000e+00
      vertex   -3.344238e+01 -6.387110e+01 1.600000e+00
      vertex   -4.326030e+01 -4.243657e+01 1.600000e+00
    endloop
  endfacet
  facet normal 2.472308e-18 -9.226780e-18 1.000000e+00
    outer loop
      vertex   -4.326030e+01 -4.243657e+01 1.600000e+00
      vertex   -3.344238e+01 -6.387110e+01 1.600000e+00
      vertex   -4.230775e+01 -4.218134e+01 1.600000e+00
    endloop
  endfacet
  facet normal 2.151070e-18 -9.358081e-18 1.000000e+00
    outer loop
      vertex   -4.230775e+01 -4.218134e+01 1.600000e+00
      vertex   -3.344238e+01 -6.387110e+01 1.600000e+00
      vertex   -4.134667e+01 -4.196042e+01 1.600000e+00
    endloop
  endfacet
  facet normal 1.823235e-18 -9.476348e-18 1.000000e+00
    outer loop
      vertex   -4.134667e+01 -4.196042e+01 1.600000e+00
      vertex   -3.344238e+01 -6.387110e+01 1.600000e+00
      vertex   -4.037829e+01 -4.177411e+01 1.600000e+00
    endloop
  endfacet
  facet normal -1.519380e-15 -4.869585e-16 1.000000e+00
    outer loop
      vertex   -4.037829e+01 -4.177411e+01 1.600000e+00
      vertex   -3.344238e+01 -6.387110e+01 1.600000e+00
      vertex   -3.940384e+01 -4.162263e+01 1.600000e+00
    endloop
  endfacet
  facet normal 9.659258e-01 2.588190e-01 -2.790269e-07
    outer loop
      vertex   -3.285674e+01 -6.605674e+01 4.440892e-14
      vertex   -3.940384e+01 -4.162263e+01 3.191357e-14
      vertex   -3.344238e+01 -6.387110e+01 1.600000e+00
    endloop
  endfacet
  facet normal 9.659258e-01 2.588191e-01 0.000000e+00
    outer loop
      vertex   -3.344238e+01 -6.387110e+01 1.600000e+00
      vertex   -3.940384e+01 -4.162263e+01 3.191357e-14
      vertex   -3.940384e+01 -4.162263e+01 1.600000e+00
    endloop
  endfacet
  facet normal -9.659258e-01 -2.588191e-01 -1.395133e-07
    outer loop
      vertex   -3.950741e+01 -6.783878e+01 3.552714e-14
      vertex   -4.009305e+01 -6.565314e+01 1.600000e+00
      vertex   -4.605451e+01 -4.340467e+01 3.020931e-14
    endloop
  endfacet
  facet normal -9.659258e-01 -2.588191e-01 0.000000e+00
    outer loop
      vertex   -4.605451e+01 -4.340467e+01 3.020931e-14
      vertex   -4.009305e+01 -6.565314e+01 1.600000e+00
      vertex   -4.605451e+01 -4.340467e+01 1.600000e+00
    endloop
  endfacet
  facet normal -1.536035e-01 9.881326e-01 0.000000e+00
    outer loop
      vertex   -3.940384e+01 -4.162263e+01 1.600000e+00
      vertex   -3.940384e+01 -4.162263e+01 3.191357e-14
      vertex   -4.037829e+01 -4.177411e+01 1.600000e+00
    endloop
  endfacet
  facet normal -1.536035e-01 9.881326e-01 0.000000e+00
    outer loop
      vertex   -4.037829e+01 -4.177411e+01 1.600000e+00
      vertex   -3.940384e+01 -4.162263e+01 3.191357e-14
      vertex   -4.037829e+01 -4.177411e+01 3.064076e-14
    endloop
  endfacet
  facet normal -1.889334e-01 9.819899e-01 0.000000e+00
    outer loop
      vertex   -4.037829e+01 -4.177411e+01 1.600000e+00
      vertex   -4.037829e+01 -4.177411e+01 3.064076e-14
      vertex   -4.134667e+01 -4.196042e+01 1.600000e+00
    endloop
  endfacet
  facet normal -1.889334e-01 9.819899e-01 0.000000e+00
    outer loop
      vertex   -4.134667e+01 -4.196042e+01 1.600000e+00
      vertex   -4.037829e+01 -4.177411e+01 3.064076e-14
      vertex   -4.134667e+01 -4.196042e+01 3.064677e-14
    endloop
  endfacet
  facet normal -2.240202e-01 9.745845e-01 0.000000e+00
    outer loop
      vertex   -4.134667e+01 -4.196042e+01 1.600000e+00
      vertex   -4.134667e+01 -4.196042e+01 3.064677e-14
      vertex   -4.230775e+01 -4.218134e+01 1.600000e+00
    endloop
  endfacet
  facet normal -2.240202e-01 9.745845e-01 0.000000e+00
    outer loop
      vertex   -4.230775e+01 -4.218134e+01 1.600000e+00
      vertex   -4.134667e+01 -4.196042e+01 3.064677e-14
      vertex   -4.230775e+01 -4.218134e+01 3.065164e-14
    endloop
  endfacet
  facet normal -2.588191e-01 9.659258e-01 0.000000e+00
    outer loop
      vertex   -4.230775e+01 -4.218134e+01 1.600000e+00
      vertex   -4.230775e+01 -4.218134e+01 3.065164e-14
      vertex   -4.326030e+01 -4.243657e+01 1.600000e+00
    endloop
  endfacet
  facet normal -2.588191e-01 9.659258e-01 0.000000e+00
    outer loop
      vertex   -4.326030e+01 -4.243657e+01 1.600000e+00
      vertex   -4.230775e+01 -4.218134e+01 3.065164e-14
      vertex   -4.326030e+01 -4.243657e+01 3.065537e-14
    endloop
  endfacet
  facet normal -2.932850e-01 9.560250e-01 0.000000e+00
    outer loop
      vertex   -4.326030e+01 -4.243657e+01 1.600000e+00
      vertex   -4.326030e+01 -4.243657e+01 3.065537e-14
      vertex   -4.420308e+01 -4.272579e+01 1.600000e+00
    endloop
  endfacet
  facet normal -2.932850e-01 9.560250e-01 0.000000e+00
    outer loop
      vertex   -4.420308e+01 -4.272579e+01 1.600000e+00
      vertex   -4.326030e+01 -4.243657e+01 3.065537e-14
      vertex   -4.420308e+01 -4.272579e+01 3.065794e-14
    endloop
  endfacet
  facet normal -3.273739e-01 9.448949e-01 0.000000e+00
    outer loop
      vertex   -4.420308e+01 -4.272579e+01 1.600000e+00
      vertex   -4.420308e+01 -4.272579e+01 3.065794e-14
      vertex   -4.513488e+01 -4.304863e+01 1.600000e+00
    endloop
  endfacet
  facet normal -3.273739e-01 9.448949e-01 0.000000e+00
    outer loop
      vertex   -4.513488e+01 -4.304863e+01 1.600000e+00
      vertex   -4.420308e+01 -4.272579e+01 3.065794e-14
      vertex   -4.513488e+01 -4.304863e+01 3.065936e-14
    endloop
  endfacet
  facet normal -3.610418e-01 9.325496e-01 0.000000e+00
    outer loop
      vertex   -4.513488e+01 -4.304863e+01 1.600000e+00
      vertex   -4.513488e+01 -4.304863e+01 3.065936e-14
      vertex   -4.605451e+01 -4.340467e+01 1.600000e+00
    endloop
  endfacet
  facet normal -3.610418e-01 9.325496e-01 0.000000e+00
    outer loop
      vertex   -4.605451e+01 -4.340467e+01 1.600000e+00
      vertex   -4.513488e+01 -4.304863e+01 3.065936e-14
      vertex   -4.605451e+01 -4.340467e+01 3.020931e-14
    endloop
  endfacet
  facet normal 1.252975e-16 -5.713133e-17 1.000000e+00
    outer loop
      vertex   -3.623878e+01 -7.430741e+01 1.600000e+00
      vertex   -4.110741e+01 -6.943878e+01 1.600000e+00
      vertex   -5.252579e+01 -9.059442e+01 1.600000e+00
    endloop
  endfacet
  facet normal 4.089017e-16 -2.102017e-16 1.000000e+00
    outer loop
      vertex   -5.252579e+01 -9.059442e+01 1.600000e+00
      vertex   -4.110741e+01 -6.943878e+01 1.600000e+00
      vertex   -5.329395e+01 -8.997602e+01 1.600000e+00
    endloop
  endfacet
  facet normal 1.855356e-17 2.142597e-17 1.000000e+00
    outer loop
      vertex   -5.329395e+01 -8.997602e+01 1.600000e+00
      vertex   -4.110741e+01 -6.943878e+01 1.600000e+00
      vertex   -5.403944e+01 -8.933047e+01 1.600000e+00
    endloop
  endfacet
  facet normal 2.110584e-16 -1.037256e-16 1.000000e+00
    outer loop
      vertex   -5.403944e+01 -8.933047e+01 1.600000e+00
      vertex   -4.110741e+01 -6.943878e+01 1.600000e+00
      vertex   -5.476130e+01 -8.865861e+01 1.600000e+00
    endloop
  endfacet
  facet normal 2.701789e-17 2.701789e-17 1.000000e+00
    outer loop
      vertex   -5.476130e+01 -8.865861e+01 1.600000e+00
      vertex   -4.110741e+01 -6.943878e+01 1.600000e+00
      vertex   -5.545861e+01 -8.796130e+01 1.600000e+00
    endloop
  endfacet
  facet normal 2.811521e-17 2.616769e-17 1.000000e+00
    outer loop
      vertex   -5.545861e+01 -8.796130e+01 1.600000e+00
      vertex   -4.110741e+01 -6.943878e+01 1.600000e+00
      vertex   -5.613047e+01 -8.723944e+01 1.600000e+00
    endloop
  endfacet
  facet normal 2.033727e-16 -1.217428e-16 1.000000e+00
    outer loop
      vertex   -5.613047e+01 -8.723944e+01 1.600000e+00
      vertex   -4.110741e+01 -6.943878e+01 1.600000e+00
      vertex   -5.677602e+01 -8.649395e+01 1.600000e+00
    endloop
  endfacet
  facet normal 1.043926e-15 -8.939607e-16 1.000000e+00
    outer loop
      vertex   -5.677602e+01 -8.649395e+01 1.600000e+00
      vertex   -4.110741e+01 -6.943878e+01 1.600000e+00
      vertex   -5.739442e+01 -8.572579e+01 1.600000e+00
    endloop
  endfacet
  facet normal -7.071068e-01 7.071068e-01 -1.395136e-07
    outer loop
      vertex   -3.950741e+01 -6.783878e+01 3.552714e-14
      vertex   -5.739442e+01 -8.572579e+01 3.995723e-14
      vertex   -4.110741e+01 -6.943878e+01 1.600000e+00
    endloop
  endfacet
  facet normal -7.071068e-01 7.071068e-01 0.000000e+00
    outer loop
      vertex   -4.110741e+01 -6.943878e+01 1.600000e+00
      vertex   -5.739442e+01 -8.572579e+01 3.995723e-14
      vertex   -5.739442e+01 -8.572579e+01 1.600000e+00
    endloop
  endfacet
  facet normal 7.071068e-01 -7.071068e-01 -2.790269e-07
    outer loop
      vertex   -3.463878e+01 -7.270741e+01 4.440892e-14
      vertex   -3.623878e+01 -7.430741e+01 1.600000e+00
      vertex   -5.252579e+01 -9.059442e+01 3.757799e-14
    endloop
  endfacet
  facet normal 7.071068e-01 -7.071068e-01 0.000000e+00
    outer loop
      vertex   -5.252579e+01 -9.059442e+01 3.757799e-14
      vertex   -3.623878e+01 -7.430741e+01 1.600000e+00
      vertex   -5.252579e+01 -9.059442e+01 1.600000e+00
    endloop
  endfacet
  facet normal -7.789461e-01 -6.270908e-01 -0.000000e+00
    outer loop
      vertex   -5.739442e+01 -8.572579e+01 1.600000e+00
      vertex   -5.739442e+01 -8.572579e+01 3.995723e-14
      vertex   -5.677602e+01 -8.649395e+01 1.600000e+00
    endloop
  endfacet
  facet normal -7.789461e-01 -6.270908e-01 -0.000000e+00
    outer loop
      vertex   -5.677602e+01 -8.649395e+01 1.600000e+00
      vertex   -5.739442e+01 -8.572579e+01 3.995723e-14
      vertex   -5.677602e+01 -8.649395e+01 3.859109e-14
    endloop
  endfacet
  facet normal -7.559615e-01 -6.546160e-01 -0.000000e+00
    outer loop
      vertex   -5.677602e+01 -8.649395e+01 1.600000e+00
      vertex   -5.677602e+01 -8.649395e+01 3.859109e-14
      vertex   -5.613047e+01 -8.723944e+01 1.600000e+00
    endloop
  endfacet
  facet normal -7.559615e-01 -6.546160e-01 -0.000000e+00
    outer loop
      vertex   -5.613047e+01 -8.723944e+01 1.600000e+00
      vertex   -5.677602e+01 -8.649395e+01 3.859109e-14
      vertex   -5.613047e+01 -8.723944e+01 3.850253e-14
    endloop
  endfacet
  facet normal -7.320048e-01 -6.812995e-01 -0.000000e+00
    outer loop
      vertex   -5.613047e+01 -8.723944e+01 1.600000e+00
      vertex   -5.613047e+01 -8.723944e+01 3.850253e-14
      vertex   -5.545861e+01 -8.796130e+01 1.600000e+00
    endloop
  endfacet
  facet normal -7.320048e-01 -6.812995e-01 -0.000000e+00
    outer loop
      vertex   -5.545861e+01 -8.796130e+01 1.600000e+00
      vertex   -5.613047e+01 -8.723944e+01 3.850253e-14
      vertex   -5.545861e+01 -8.796130e+01 3.841172e-14
    endloop
  endfacet
  facet normal -7.071068e-01 -7.071068e-01 -0.000000e+00
    outer loop
      vertex   -5.545861e+01 -8.796130e+01 1.600000e+00
      vertex   -5.545861e+01 -8.796130e+01 3.841172e-14
      vertex   -5.476130e+01 -8.865861e+01 1.600000e+00
    endloop
  endfacet
  facet normal -7.071068e-01 -7.071068e-01 -0.000000e+00
    outer loop
      vertex   -5.476130e+01 -8.865861e+01 1.600000e+00
      vertex   -5.545861e+01 -8.796130e+01 3.841172e-14
      vertex   -5.476130e+01 -8.865861e+01 3.831877e-14
    endloop
  endfacet
  facet normal -6.812994e-01 -7.320048e-01 -0.000000e+00
    outer loop
      vertex   -5.476130e+01 -8.865861e+01 1.600000e+00
      vertex   -5.476130e+01 -8.865861e+01 3.831877e-14
      vertex   -5.403944e+01 -8.933047e+01 1.600000e+00
    endloop
  endfacet
  facet normal -6.812994e-01 -7.320048e-01 -0.000000e+00
    outer loop
      vertex   -5.403944e+01 -8.933047e+01 1.600000e+00
      vertex   -5.476130e+01 -8.865861e+01 3.831877e-14
      vertex   -5.403944e+01 -8.933047e+01 3.822380e-14
    endloop
  endfacet
  facet normal -6.546160e-01 -7.559615e-01 -0.000000e+00
    outer loop
      vertex   -5.403944e+01 -8.933047e+01 1.600000e+00
      vertex   -5.403944e+01 -8.933047e+01 3.822380e-14
      vertex   -5.329395e+01 -8.997602e+01 1.600000e+00
    endloop
  endfacet
  facet normal -6.546160e-01 -7.559615e-01 -0.000000e+00
    outer loop
      vertex   -5.329395e+01 -8.997602e+01 1.600000e+00
      vertex   -5.403944e+01 -8.933047e+01 3.822380e-14
      vertex   -5.329395e+01 -8.997602e+01 3.812694e-14
    endloop
  endfacet
  facet normal -6.270908e-01 -7.789462e-01 -0.000000e+00
    outer loop
      vertex   -5.329395e+01 -8.997602e+01 1.600000e+00
      vertex   -5.329395e+01 -8.997602e+01 3.812694e-14
      vertex   -5.252579e+01 -9.059442e+01 1.600000e+00
    endloop
  endfacet
  facet normal -6.270908e-01 -7.789462e-01 -0.000000e+00
    outer loop
      vertex   -5.252579e+01 -9.059442e+01 1.600000e+00
      vertex   -5.329395e+01 -8.997602e+01 3.812694e-14
      vertex   -5.252579e+01 -9.059442e+01 3.757799e-14
    endloop
  endfacet
  facet normal 2.588190e-01 9.659258e-01 3.072243e-15
    outer loop
      vertex   -3.285674e+01 -6.605674e+01 4.440892e-14
      vertex   -3.067110e+01 -6.664238e+01 1.600000e+00
      vertex   -8.422631e+00 -7.260384e+01 3.463395e-14
    endloop
  endfacet
  facet normal 2.588190e-01 9.659258e-01 -0.000000e+00
    outer loop
      vertex   -8.422631e+00 -7.260384e+01 3.463395e-14
      vertex   -3.067110e+01 -6.664238e+01 1.600000e+00
      vertex   -8.422631e+00 -7.260384e+01 1.600000e+00
    endloop
  endfacet
  facet normal 8.187509e-17 4.483524e-17 1.000000e+00
    outer loop
      vertex   -3.067110e+01 -6.664238e+01 1.600000e+00
      vertex   -3.245314e+01 -7.329305e+01 1.600000e+00
      vertex   -8.422631e+00 -7.260384e+01 1.600000e+00
    endloop
  endfacet
  facet normal 6.383935e-17 6.736808e-16 1.000000e+00
    outer loop
      vertex   -8.422631e+00 -7.260384e+01 1.600000e+00
      vertex   -3.245314e+01 -7.329305e+01 1.600000e+00
      vertex   -8.574106e+00 -7.357828e+01 1.600000e+00
    endloop
  endfacet
  facet normal 5.566443e-17 -1.070975e-17 1.000000e+00
    outer loop
      vertex   -8.574106e+00 -7.357828e+01 1.600000e+00
      vertex   -3.245314e+01 -7.329305e+01 1.600000e+00
      vertex   -8.760422e+00 -7.454667e+01 1.600000e+00
    endloop
  endfacet
  facet normal 5.555541e-17 -1.277009e-17 1.000000e+00
    outer loop
      vertex   -8.760422e+00 -7.454667e+01 1.600000e+00
      vertex   -3.245314e+01 -7.329305e+01 1.600000e+00
      vertex   -8.981339e+00 -7.550775e+01 1.600000e+00
    endloop
  endfacet
  facet normal 7.681328e-17 2.125248e-16 1.000000e+00
    outer loop
      vertex   -8.981339e+00 -7.550775e+01 1.600000e+00
      vertex   -3.245314e+01 -7.329305e+01 1.600000e+00
      vertex   -9.236572e+00 -7.646030e+01 1.600000e+00
    endloop
  endfacet
  facet normal 4.589936e-17 -1.408080e-17 1.000000e+00
    outer loop
      vertex   -9.236572e+00 -7.646030e+01 1.600000e+00
      vertex   -3.245314e+01 -7.329305e+01 1.600000e+00
      vertex   -9.525794e+00 -7.740308e+01 1.600000e+00
    endloop
  endfacet
  facet normal 4.559188e-17 -1.579603e-17 1.000000e+00
    outer loop
      vertex   -9.525794e+00 -7.740308e+01 1.600000e+00
      vertex   -3.245314e+01 -7.329305e+01 1.600000e+00
      vertex   -9.848633e+00 -7.833488e+01 1.600000e+00
    endloop
  endfacet
  facet normal 3.426515e-16 1.316040e-15 1.000000e+00
    outer loop
      vertex   -9.848633e+00 -7.833488e+01 1.600000e+00
      vertex   -3.245314e+01 -7.329305e+01 1.600000e+00
      vertex   -1.020467e+01 -7.925451e+01 1.600000e+00
    endloop
  endfacet
  facet normal -2.588190e-01 -9.659258e-01 -2.501683e-15
    outer loop
      vertex   -3.463878e+01 -7.270741e+01 4.440892e-14
      vertex   -1.020467e+01 -7.925451e+01 3.683233e-14
      vertex   -3.245314e+01 -7.329305e+01 1.600000e+00
    endloop
  endfacet
  facet normal -2.588190e-01 -9.659258e-01 0.000000e+00
    outer loop
      vertex   -3.245314e+01 -7.329305e+01 1.600000e+00
      vertex   -1.020467e+01 -7.925451e+01 3.683233e-14
      vertex   -1.020467e+01 -7.925451e+01 1.600000e+00
    endloop
  endfacet
  facet normal 9.325497e-01 -3.610417e-01 0.000000e+00
    outer loop
      vertex   -1.020467e+01 -7.925451e+01 1.600000e+00
      vertex   -1.020467e+01 -7.925451e+01 3.683233e-14
      vertex   -9.848633e+00 -7.833488e+01 1.600000e+00
    endloop
  endfacet
  facet normal 9.325497e-01 -3.610417e-01 0.000000e+00
    outer loop
      vertex   -9.848633e+00 -7.833488e+01 1.600000e+00
      vertex   -1.020467e+01 -7.925451e+01 3.683233e-14
      vertex   -9.848633e+00 -7.833488e+01 3.548156e-14
    endloop
  endfacet
  facet normal 9.448949e-01 -3.273739e-01 0.000000e+00
    outer loop
      vertex   -9.848633e+00 -7.833488e+01 1.600000e+00
      vertex   -9.848633e+00 -7.833488e+01 3.548156e-14
      vertex   -9.525794e+00 -7.740308e+01 1.600000e+00
    endloop
  endfacet
  facet normal 9.448949e-01 -3.273739e-01 0.000000e+00
    outer loop
      vertex   -9.525794e+00 -7.740308e+01 1.600000e+00
      vertex   -9.848633e+00 -7.833488e+01 3.548156e-14
      vertex   -9.525794e+00 -7.740308e+01 3.541191e-14
    endloop
  endfacet
  facet normal 9.560251e-01 -2.932850e-01 0.000000e+00
    outer loop
      vertex   -9.525794e+00 -7.740308e+01 1.600000e+00
      vertex   -9.525794e+00 -7.740308e+01 3.541191e-14
      vertex   -9.236572e+00 -7.646030e+01 1.600000e+00
    endloop
  endfacet
  facet normal 9.560251e-01 -2.932850e-01 0.000000e+00
    outer loop
      vertex   -9.236572e+00 -7.646030e+01 1.600000e+00
      vertex   -9.525794e+00 -7.740308e+01 3.541191e-14
      vertex   -9.236572e+00 -7.646030e+01 3.534352e-14
    endloop
  endfacet
  facet normal 9.659258e-01 -2.588190e-01 0.000000e+00
    outer loop
      vertex   -9.236572e+00 -7.646030e+01 1.600000e+00
      vertex   -9.236572e+00 -7.646030e+01 3.534352e-14
      vertex   -8.981339e+00 -7.550775e+01 1.600000e+00
    endloop
  endfacet
  facet normal 9.659258e-01 -2.588190e-01 0.000000e+00
    outer loop
      vertex   -8.981339e+00 -7.550775e+01 1.600000e+00
      vertex   -9.236572e+00 -7.646030e+01 3.534352e-14
      vertex   -8.981339e+00 -7.550775e+01 3.527648e-14
    endloop
  endfacet
  facet normal 9.745845e-01 -2.240202e-01 0.000000e+00
    outer loop
      vertex   -8.981339e+00 -7.550775e+01 1.600000e+00
      vertex   -8.981339e+00 -7.550775e+01 3.527648e-14
      vertex   -8.760422e+00 -7.454667e+01 1.600000e+00
    endloop
  endfacet
  facet normal 9.745845e-01 -2.240202e-01 0.000000e+00
    outer loop
      vertex   -8.760422e+00 -7.454667e+01 1.600000e+00
      vertex   -8.981339e+00 -7.550775e+01 3.527648e-14
      vertex   -8.760422e+00 -7.454667e+01 3.521086e-14
    endloop
  endfacet
  facet normal 9.819899e-01 -1.889333e-01 0.000000e+00
    outer loop
      vertex   -8.760422e+00 -7.454667e+01 1.600000e+00
      vertex   -8.760422e+00 -7.454667e+01 3.521086e-14
      vertex   -8.574106e+00 -7.357828e+01 1.600000e+00
    endloop
  endfacet
  facet normal 9.819899e-01 -1.889333e-01 0.000000e+00
    outer loop
      vertex   -8.574106e+00 -7.357828e+01 1.600000e+00
      vertex   -8.760422e+00 -7.454667e+01 3.521086e-14
      vertex   -8.574106e+00 -7.357828e+01 3.514676e-14
    endloop
  endfacet
  facet normal 9.881326e-01 -1.536035e-01 0.000000e+00
    outer loop
      vertex   -8.574106e+00 -7.357828e+01 1.600000e+00
      vertex   -8.574106e+00 -7.357828e+01 3.514676e-14
      vertex   -8.422631e+00 -7.260384e+01 1.600000e+00
    endloop
  endfacet
  facet normal 9.881326e-01 -1.536035e-01 0.000000e+00
    outer loop
      vertex   -8.422631e+00 -7.260384e+01 1.600000e+00
      vertex   -8.574106e+00 -7.357828e+01 3.514676e-14
      vertex   -8.422631e+00 -7.260384e+01 3.463395e-14
    endloop
  endfacet
  facet normal 7.886752e-01 -2.113249e-01 5.773502e-01
    outer loop
      vertex   -3.933163e+01 -6.520026e+01 3.150517e+00
      vertex   -4.144972e+01 -6.731834e+01 5.268600e+00
      vertex   -4.067444e+01 -7.021170e+01 3.150517e+00
    endloop
  endfacet
  facet normal -2.113249e-01 7.886751e-01 5.773503e-01
    outer loop
      vertex   -4.144972e+01 -6.731834e+01 5.268600e+00
      vertex   -3.933163e+01 -6.520026e+01 3.150517e+00
      vertex   -4.255386e+01 -6.702249e+01 4.460310e+00
    endloop
  endfacet
  facet normal -2.113249e-01 7.886751e-01 5.773503e-01
    outer loop
      vertex   -4.255386e+01 -6.702249e+01 4.460310e+00
      vertex   -3.933163e+01 -6.520026e+01 3.150517e+00
      vertex   -4.032371e+01 -6.479234e+01 2.230155e+00
    endloop
  endfacet
  facet normal -2.113249e-01 7.886751e-01 5.773503e-01
    outer loop
      vertex   -4.032371e+01 -6.479234e+01 2.230155e+00
      vertex   -3.933163e+01 -6.520026e+01 3.150517e+00
      vertex   -3.511334e+01 -6.511334e+01 4.575780e+00
    endloop
  endfacet
  facet normal -2.113249e-01 7.886751e-01 5.773503e-01
    outer loop
      vertex   -4.032371e+01 -6.479234e+01 2.230155e+00
      vertex   -3.511334e+01 -6.511334e+01 4.575780e+00
      vertex   -3.395864e+01 -6.395864e+01 3.421080e+00
    endloop
  endfacet
  facet normal -2.113249e-01 7.886751e-01 5.773503e-01
    outer loop
      vertex   -3.933163e+01 -6.520026e+01 3.150517e+00
      vertex   8.881163e+00 -7.811884e+01 3.844473e+01
      vertex   -3.511334e+01 -6.511334e+01 4.575780e+00
    endloop
  endfacet
  facet normal -2.113249e-01 7.886751e-01 5.773503e-01
    outer loop
      vertex   -3.511334e+01 -6.511334e+01 4.575780e+00
      vertex   8.881163e+00 -7.811884e+01 3.844473e+01
      vertex   9.841147e+00 -7.715885e+01 3.748474e+01
    endloop
  endfacet
  facet normal -2.113249e-01 7.886751e-01 5.773503e-01
    outer loop
      vertex   1.099585e+01 -7.600415e+01 3.633004e+01
      vertex   1.180414e+01 -7.519586e+01 3.552175e+01
      vertex   -3.395864e+01 -6.395864e+01 3.421080e+00
    endloop
  endfacet
  facet normal -2.113249e-01 7.886751e-01 5.773503e-01
    outer loop
      vertex   -3.395864e+01 -6.395864e+01 3.421080e+00
      vertex   1.180414e+01 -7.519586e+01 3.552175e+01
      vertex   -3.367304e+01 -6.301029e+01 2.230155e+00
    endloop
  endfacet
  facet normal -2.113249e-01 7.886751e-01 5.773503e-01
    outer loop
      vertex   -3.395864e+01 -6.395864e+01 3.421080e+00
      vertex   -3.367304e+01 -6.301029e+01 2.230155e+00
      vertex   -4.032371e+01 -6.479234e+01 2.230155e+00
    endloop
  endfacet
  facet normal 7.886752e-01 -2.113249e-01 5.773502e-01
    outer loop
      vertex   -3.706475e+01 -7.239613e+01 4.575780e+00
      vertex   -3.664210e+01 -7.397348e+01 3.421080e+00
      vertex   -3.625646e+01 -7.158784e+01 3.767490e+00
    endloop
  endfacet
  facet normal 7.886752e-01 -2.113249e-01 5.773502e-01
    outer loop
      vertex   -3.625646e+01 -7.158784e+01 3.767490e+00
      vertex   -3.664210e+01 -7.397348e+01 3.421080e+00
      vertex   -3.467911e+01 -7.201049e+01 1.458089e+00
    endloop
  endfacet
  facet normal 7.886752e-01 -2.113249e-01 5.773502e-01
    outer loop
      vertex   -3.625646e+01 -7.158784e+01 3.767490e+00
      vertex   -3.467911e+01 -7.201049e+01 1.458089e+00
      vertex   -3.533060e+01 -6.957912e+01 3.237969e+00
    endloop
  endfacet
  facet normal 7.886752e-01 -2.113249e-01 5.773502e-01
    outer loop
      vertex   -3.573846e+01 -6.946984e+01 3.835131e+00
      vertex   -3.629600e+01 -7.002737e+01 4.392670e+00
      vertex   -3.533060e+01 -6.957912e+01 3.237969e+00
    endloop
  endfacet
  facet normal 7.886752e-01 -2.113249e-01 5.773502e-01
    outer loop
      vertex   -3.533060e+01 -6.957912e+01 3.237969e+00
      vertex   -3.629600e+01 -7.002737e+01 4.392670e+00
      vertex   -3.648530e+01 -7.073382e+01 4.392670e+00
    endloop
  endfacet
  facet normal 7.886752e-01 -2.113249e-01 5.773502e-01
    outer loop
      vertex   -3.533060e+01 -6.957912e+01 3.237969e+00
      vertex   -3.648530e+01 -7.073382e+01 4.392670e+00
      vertex   -3.625646e+01 -7.158784e+01 3.767490e+00
    endloop
  endfacet
  facet normal 7.886752e-01 -2.113249e-01 5.773502e-01
    outer loop
      vertex   -3.511334e+01 -6.511334e+01 4.575780e+00
      vertex   -3.481748e+01 -6.621748e+01 3.767490e+00
      vertex   -3.395864e+01 -6.395864e+01 3.421080e+00
    endloop
  endfacet
  facet normal 7.886752e-01 -2.113249e-01 5.773502e-01
    outer loop
      vertex   -3.395864e+01 -6.395864e+01 3.421080e+00
      vertex   -3.481748e+01 -6.621748e+01 3.767490e+00
      vertex   -3.324013e+01 -6.664013e+01 1.458089e+00
    endloop
  endfacet
  facet normal 7.886752e-01 -2.113249e-01 5.773502e-01
    outer loop
      vertex   -3.324013e+01 -6.664013e+01 1.458089e+00
      vertex   -3.481748e+01 -6.621748e+01 3.767490e+00
      vertex   -3.502001e+01 -6.842001e+01 3.237969e+00
    endloop
  endfacet
  facet normal 7.886752e-01 -2.113249e-01 5.773502e-01
    outer loop
      vertex   -3.502001e+01 -6.842001e+01 3.237969e+00
      vertex   -3.481748e+01 -6.621748e+01 3.767490e+00
      vertex   -3.542788e+01 -6.831073e+01 3.835131e+00
    endloop
  endfacet
  facet normal 7.886752e-01 -2.113249e-01 5.773502e-01
    outer loop
      vertex   -3.542788e+01 -6.831073e+01 3.835131e+00
      vertex   -3.481748e+01 -6.621748e+01 3.767490e+00
      vertex   -3.563196e+01 -6.754911e+01 4.392670e+00
    endloop
  endfacet
  facet normal 7.886752e-01 -2.113249e-01 5.773502e-01
    outer loop
      vertex   -3.563196e+01 -6.754911e+01 4.392670e+00
      vertex   -3.481748e+01 -6.621748e+01 3.767490e+00
      vertex   -3.544266e+01 -6.684266e+01 4.392670e+00
    endloop
  endfacet
  facet normal 7.886752e-01 -2.113249e-01 5.773502e-01
    outer loop
      vertex   8.608234e+00 -8.712314e+01 3.552175e+01
      vertex   1.083839e+01 -8.489298e+01 3.329160e+01
      vertex   1.027537e+01 -8.405600e+01 3.436705e+01
    endloop
  endfacet
  facet normal 7.886752e-01 -2.113249e-01 5.773502e-01
    outer loop
      vertex   1.027537e+01 -8.405600e+01 3.436705e+01
      vertex   1.083839e+01 -8.489298e+01 3.329160e+01
      vertex   1.262043e+01 -7.824231e+01 3.329160e+01
    endloop
  endfacet
  facet normal 7.886752e-01 -2.113249e-01 5.773502e-01
    outer loop
      vertex   1.027537e+01 -8.405600e+01 3.436705e+01
      vertex   1.262043e+01 -7.824231e+01 3.329160e+01
      vertex   1.171435e+01 -7.868565e+01 3.436705e+01
    endloop
  endfacet
  facet normal 7.886752e-01 -2.113249e-01 5.773502e-01
    outer loop
      vertex   1.171435e+01 -7.868565e+01 3.436705e+01
      vertex   1.262043e+01 -7.824231e+01 3.329160e+01
      vertex   1.180414e+01 -7.519586e+01 3.552175e+01
    endloop
  endfacet
  facet normal 7.886752e-01 -2.113249e-01 5.773502e-01
    outer loop
      vertex   1.171435e+01 -7.868565e+01 3.436705e+01
      vertex   1.180414e+01 -7.519586e+01 3.552175e+01
      vertex   1.099585e+01 -7.600415e+01 3.633004e+01
    endloop
  endfacet
  facet normal 7.886752e-01 -2.113249e-01 5.773502e-01
    outer loop
      vertex   1.171435e+01 -7.868565e+01 3.436705e+01
      vertex   9.934472e+00 -8.046553e+01 3.614693e+01
      vertex   1.027537e+01 -8.405600e+01 3.436705e+01
    endloop
  endfacet
  facet normal 7.886752e-01 -2.113249e-01 5.773502e-01
    outer loop
      vertex   1.027537e+01 -8.405600e+01 3.436705e+01
      vertex   9.934472e+00 -8.046553e+01 3.614693e+01
      vertex   9.623889e+00 -8.162464e+01 3.614693e+01
    endloop
  endfacet
  facet normal 7.886752e-01 -2.113249e-01 5.773502e-01
    outer loop
      vertex   9.623889e+00 -8.162464e+01 3.614693e+01
      vertex   9.934472e+00 -8.046553e+01 3.614693e+01
      vertex   9.526603e+00 -8.035624e+01 3.674409e+01
    endloop
  endfacet
  facet normal 7.886752e-01 -2.113249e-01 5.773502e-01
    outer loop
      vertex   9.623889e+00 -8.162464e+01 3.614693e+01
      vertex   9.526603e+00 -8.035624e+01 3.674409e+01
      vertex   9.216020e+00 -8.151535e+01 3.674409e+01
    endloop
  endfacet
  facet normal 7.886752e-01 -2.113249e-01 5.773502e-01
    outer loop
      vertex   9.216020e+00 -8.151535e+01 3.674409e+01
      vertex   9.526603e+00 -8.035624e+01 3.674409e+01
      vertex   9.322529e+00 -7.959463e+01 3.730163e+01
    endloop
  endfacet
  facet normal 7.886752e-01 -2.113249e-01 5.773502e-01
    outer loop
      vertex   9.216020e+00 -8.151535e+01 3.674409e+01
      vertex   9.322529e+00 -7.959463e+01 3.730163e+01
      vertex   8.658481e+00 -8.207289e+01 3.730163e+01
    endloop
  endfacet
  facet normal 7.886752e-01 -2.113249e-01 5.773502e-01
    outer loop
      vertex   8.658481e+00 -8.207289e+01 3.730163e+01
      vertex   9.322529e+00 -7.959463e+01 3.730163e+01
      vertex   8.881163e+00 -7.811884e+01 3.844473e+01
    endloop
  endfacet
  facet normal 7.886752e-01 -2.113249e-01 5.773502e-01
    outer loop
      vertex   8.658481e+00 -8.207289e+01 3.730163e+01
      vertex   8.881163e+00 -7.811884e+01 3.844473e+01
      vertex   7.538351e+00 -8.313028e+01 3.844473e+01
    endloop
  endfacet
  facet normal 7.886752e-01 -2.113249e-01 5.773502e-01
    outer loop
      vertex   9.322529e+00 -7.959463e+01 3.730163e+01
      vertex   9.511822e+00 -7.888818e+01 3.730163e+01
      vertex   8.881163e+00 -7.811884e+01 3.844473e+01
    endloop
  endfacet
  facet normal 7.886752e-01 -2.113249e-01 5.773502e-01
    outer loop
      vertex   8.881163e+00 -7.811884e+01 3.844473e+01
      vertex   9.511822e+00 -7.888818e+01 3.730163e+01
      vertex   9.841147e+00 -7.715885e+01 3.748474e+01
    endloop
  endfacet
  facet normal 7.886752e-01 -2.113249e-01 5.773502e-01
    outer loop
      vertex   9.841147e+00 -7.715885e+01 3.748474e+01
      vertex   9.511822e+00 -7.888818e+01 3.730163e+01
      vertex   1.013700e+01 -7.826300e+01 3.667645e+01
    endloop
  endfacet
  facet normal 7.886752e-01 -2.113249e-01 5.773502e-01
    outer loop
      vertex   8.658481e+00 -8.207289e+01 3.730163e+01
      vertex   7.538351e+00 -8.313028e+01 3.844473e+01
      vertex   8.469189e+00 -8.277934e+01 3.730163e+01
    endloop
  endfacet
  facet normal 7.886752e-01 -2.113249e-01 5.773502e-01
    outer loop
      vertex   8.469189e+00 -8.277934e+01 3.730163e+01
      vertex   7.538351e+00 -8.313028e+01 3.844473e+01
      vertex   7.889730e+00 -8.444164e+01 3.748474e+01
    endloop
  endfacet
  facet normal 7.886752e-01 -2.113249e-01 5.773502e-01
    outer loop
      vertex   8.469189e+00 -8.277934e+01 3.730163e+01
      vertex   7.889730e+00 -8.444164e+01 3.748474e+01
      vertex   8.698020e+00 -8.363335e+01 3.667645e+01
    endloop
  endfacet
  facet normal 7.886752e-01 -2.113249e-01 5.773502e-01
    outer loop
      vertex   1.027537e+01 -8.405600e+01 3.436705e+01
      vertex   8.312380e+00 -8.601899e+01 3.633004e+01
      vertex   8.608234e+00 -8.712314e+01 3.552175e+01
    endloop
  endfacet
  facet normal 5.773502e-01 5.773503e-01 -5.773503e-01
    outer loop
      vertex   -1.751452e+00 -7.733430e+01 2.848799e+01
      vertex   -1.955525e+00 -7.657268e+01 2.904552e+01
      vertex   9.526603e+00 -8.035624e+01 3.674409e+01
    endloop
  endfacet
  facet normal 5.773502e-01 5.773503e-01 -5.773503e-01
    outer loop
      vertex   9.526603e+00 -8.035624e+01 3.674409e+01
      vertex   -1.955525e+00 -7.657268e+01 2.904552e+01
      vertex   9.322529e+00 -7.959463e+01 3.730163e+01
    endloop
  endfacet
  facet normal 2.588190e-01 9.659258e-01 -4.212192e-14
    outer loop
      vertex   -1.343583e+00 -7.744358e+01 2.789082e+01
      vertex   -1.751452e+00 -7.733430e+01 2.848799e+01
      vertex   9.934472e+00 -8.046553e+01 3.614693e+01
    endloop
  endfacet
  facet normal 2.588190e-01 9.659258e-01 -4.477578e-14
    outer loop
      vertex   9.934472e+00 -8.046553e+01 3.614693e+01
      vertex   -1.751452e+00 -7.733430e+01 2.848799e+01
      vertex   9.526603e+00 -8.035624e+01 3.674409e+01
    endloop
  endfacet
  facet normal -5.773502e-01 -5.773503e-01 5.773503e-01
    outer loop
      vertex   1.171435e+01 -7.868565e+01 3.436705e+01
      vertex   1.099585e+01 -7.600415e+01 3.633004e+01
      vertex   -3.324013e+01 -6.664013e+01 1.458089e+00
    endloop
  endfacet
  facet normal -5.773502e-01 -5.773503e-01 5.773503e-01
    outer loop
      vertex   -3.324013e+01 -6.664013e+01 1.458089e+00
      vertex   1.099585e+01 -7.600415e+01 3.633004e+01
      vertex   -3.395864e+01 -6.395864e+01 3.421080e+00
    endloop
  endfacet
  facet normal 5.773503e-01 5.773504e-01 -5.773501e-01
    outer loop
      vertex   -3.285674e+01 -6.605674e+01 4.440892e-14
      vertex   -3.344238e+01 -6.387110e+01 1.600000e+00
      vertex   -3.067110e+01 -6.664238e+01 1.600000e+00
    endloop
  endfacet
  facet normal 5.773502e-01 5.773503e-01 -5.773503e-01
    outer loop
      vertex   -3.067110e+01 -6.664238e+01 1.600000e+00
      vertex   -3.344238e+01 -6.387110e+01 1.600000e+00
      vertex   1.262043e+01 -7.824231e+01 3.329160e+01
    endloop
  endfacet
  facet normal 5.773502e-01 5.773503e-01 -5.773503e-01
    outer loop
      vertex   1.262043e+01 -7.824231e+01 3.329160e+01
      vertex   -3.344238e+01 -6.387110e+01 1.600000e+00
      vertex   1.180414e+01 -7.519586e+01 3.552175e+01
    endloop
  endfacet
  facet normal 5.773503e-01 5.773499e-01 -5.773506e-01
    outer loop
      vertex   1.180414e+01 -7.519586e+01 3.552175e+01
      vertex   -3.344238e+01 -6.387110e+01 1.600000e+00
      vertex   -3.367304e+01 -6.301029e+01 2.230155e+00
    endloop
  endfacet
  facet normal -5.576775e-01 1.494292e-01 8.164966e-01
    outer loop
      vertex   7.538351e+00 -8.313028e+01 3.844473e+01
      vertex   8.881163e+00 -7.811884e+01 3.844473e+01
      vertex   -4.067444e+01 -7.021170e+01 3.150517e+00
    endloop
  endfacet
  facet normal -5.576775e-01 1.494292e-01 8.164966e-01
    outer loop
      vertex   -4.067444e+01 -7.021170e+01 3.150517e+00
      vertex   8.881163e+00 -7.811884e+01 3.844473e+01
      vertex   -3.933163e+01 -6.520026e+01 3.150517e+00
    endloop
  endfacet
  facet normal 5.773502e-01 5.773503e-01 -5.773503e-01
    outer loop
      vertex   -3.511334e+01 -6.511334e+01 4.575780e+00
      vertex   9.841147e+00 -7.715885e+01 3.748474e+01
      vertex   -3.481748e+01 -6.621748e+01 3.767490e+00
    endloop
  endfacet
  facet normal 5.773502e-01 5.773503e-01 -5.773503e-01
    outer loop
      vertex   -3.481748e+01 -6.621748e+01 3.767490e+00
      vertex   9.841147e+00 -7.715885e+01 3.748474e+01
      vertex   1.013700e+01 -7.826300e+01 3.667645e+01
    endloop
  endfacet
  facet normal 2.588190e-01 9.659258e-01 -4.318378e-14
    outer loop
      vertex   -1.656501e+01 -7.336501e+01 1.674796e+01
      vertex   -1.697288e+01 -7.325573e+01 1.734513e+01
      vertex   -5.996766e+00 -7.619677e+01 2.448446e+01
    endloop
  endfacet
  facet normal 2.588190e-01 9.659258e-01 -4.211891e-14
    outer loop
      vertex   -5.996766e+00 -7.619677e+01 2.448446e+01
      vertex   -1.697288e+01 -7.325573e+01 1.734513e+01
      vertex   -6.404636e+00 -7.608748e+01 2.508162e+01
    endloop
  endfacet
  facet normal 5.773502e-01 5.773503e-01 -5.773503e-01
    outer loop
      vertex   -1.697288e+01 -7.325573e+01 1.734513e+01
      vertex   -1.717696e+01 -7.249411e+01 1.790266e+01
      vertex   -6.404636e+00 -7.608748e+01 2.508162e+01
    endloop
  endfacet
  facet normal 5.773502e-01 5.773503e-01 -5.773503e-01
    outer loop
      vertex   -6.404636e+00 -7.608748e+01 2.508162e+01
      vertex   -1.717696e+01 -7.249411e+01 1.790266e+01
      vertex   -6.608709e+00 -7.532587e+01 2.563916e+01
    endloop
  endfacet
  facet normal 5.576775e-01 -1.494292e-01 -8.164966e-01
    outer loop
      vertex   -1.717696e+01 -7.249411e+01 1.790266e+01
      vertex   -1.698766e+01 -7.178766e+01 1.790266e+01
      vertex   -6.608709e+00 -7.532587e+01 2.563916e+01
    endloop
  endfacet
  facet normal 5.576775e-01 -1.494292e-01 -8.164966e-01
    outer loop
      vertex   -6.608709e+00 -7.532587e+01 2.563916e+01
      vertex   -1.698766e+01 -7.178766e+01 1.790266e+01
      vertex   -6.419416e+00 -7.461942e+01 2.563916e+01
    endloop
  endfacet
  facet normal 5.773502e-01 5.773503e-01 -5.773503e-01
    outer loop
      vertex   -1.980284e+00 -7.648029e+01 2.876675e+01
      vertex   -1.811224e+00 -7.711123e+01 2.830487e+01
      vertex   -6.317997e+00 -7.531800e+01 2.559133e+01
    endloop
  endfacet
  facet normal 5.773502e-01 5.773503e-01 -5.773503e-01
    outer loop
      vertex   -6.317997e+00 -7.531800e+01 2.559133e+01
      vertex   -1.811224e+00 -7.711123e+01 2.830487e+01
      vertex   -6.148937e+00 -7.594894e+01 2.512945e+01
    endloop
  endfacet
  facet normal 2.588190e-01 9.659258e-01 -4.569921e-14
    outer loop
      vertex   -1.811224e+00 -7.711123e+01 2.830487e+01
      vertex   -1.338019e+00 -7.723802e+01 2.761205e+01
      vertex   -6.148937e+00 -7.594894e+01 2.512945e+01
    endloop
  endfacet
  facet normal 2.588190e-01 9.659258e-01 -4.572300e-14
    outer loop
      vertex   -6.148937e+00 -7.594894e+01 2.512945e+01
      vertex   -1.338019e+00 -7.723802e+01 2.761205e+01
      vertex   -5.675732e+00 -7.607573e+01 2.443663e+01
    endloop
  endfacet
  facet normal 5.576775e-01 -1.494292e-01 -8.164966e-01
    outer loop
      vertex   -1.760668e+00 -7.566067e+01 2.876675e+01
      vertex   -1.980284e+00 -7.648029e+01 2.876675e+01
      vertex   -6.098382e+00 -7.449838e+01 2.559133e+01
    endloop
  endfacet
  facet normal 5.576775e-01 -1.494292e-01 -8.164966e-01
    outer loop
      vertex   -6.098382e+00 -7.449838e+01 2.559133e+01
      vertex   -1.980284e+00 -7.648029e+01 2.876675e+01
      vertex   -6.317997e+00 -7.531800e+01 2.559133e+01
    endloop
  endfacet
  facet normal 5.576775e-01 -1.494292e-01 -8.164966e-01
    outer loop
      vertex   -1.955525e+00 -7.657268e+01 2.904552e+01
      vertex   -1.766233e+00 -7.586623e+01 2.904552e+01
      vertex   9.322529e+00 -7.959463e+01 3.730163e+01
    endloop
  endfacet
  facet normal 5.576775e-01 -1.494292e-01 -8.164966e-01
    outer loop
      vertex   9.322529e+00 -7.959463e+01 3.730163e+01
      vertex   -1.766233e+00 -7.586623e+01 2.904552e+01
      vertex   9.511822e+00 -7.888818e+01 3.730163e+01
    endloop
  endfacet
  facet normal 9.520151e-01 -2.550917e-01 -1.691020e-01
    outer loop
      vertex   -1.760668e+00 -7.566067e+01 2.876675e+01
      vertex   -1.766233e+00 -7.586623e+01 2.904552e+01
      vertex   -1.980284e+00 -7.648029e+01 2.876675e+01
    endloop
  endfacet
  facet normal 9.520151e-01 -2.550917e-01 -1.691020e-01
    outer loop
      vertex   -1.980284e+00 -7.648029e+01 2.876675e+01
      vertex   -1.766233e+00 -7.586623e+01 2.904552e+01
      vertex   -1.955525e+00 -7.657268e+01 2.904552e+01
    endloop
  endfacet
  facet normal 9.659258e-01 2.588191e-01 -4.360705e-08
    outer loop
      vertex   -1.811224e+00 -7.711123e+01 2.830487e+01
      vertex   -1.980284e+00 -7.648029e+01 2.876675e+01
      vertex   -1.751452e+00 -7.733430e+01 2.848799e+01
    endloop
  endfacet
  facet normal 9.659258e-01 2.588191e-01 -4.360704e-08
    outer loop
      vertex   -1.751452e+00 -7.733430e+01 2.848799e+01
      vertex   -1.980284e+00 -7.648029e+01 2.876675e+01
      vertex   -1.955525e+00 -7.657268e+01 2.904552e+01
    endloop
  endfacet
  facet normal 7.406902e-01 5.335835e-01 4.082483e-01
    outer loop
      vertex   -1.751452e+00 -7.733430e+01 2.848799e+01
      vertex   -1.343583e+00 -7.744358e+01 2.789082e+01
      vertex   -1.811224e+00 -7.711123e+01 2.830487e+01
    endloop
  endfacet
  facet normal 7.406902e-01 5.335835e-01 4.082483e-01
    outer loop
      vertex   -1.811224e+00 -7.711123e+01 2.830487e+01
      vertex   -1.343583e+00 -7.744358e+01 2.789082e+01
      vertex   -1.338019e+00 -7.723802e+01 2.761205e+01
    endloop
  endfacet
  facet normal -3.746649e-01 8.324419e-01 -4.082483e-01
    outer loop
      vertex   -5.675732e+00 -7.607573e+01 2.443663e+01
      vertex   -5.996766e+00 -7.619677e+01 2.448446e+01
      vertex   -6.148937e+00 -7.594894e+01 2.512945e+01
    endloop
  endfacet
  facet normal -3.746649e-01 8.324419e-01 -4.082483e-01
    outer loop
      vertex   -6.148937e+00 -7.594894e+01 2.512945e+01
      vertex   -5.996766e+00 -7.619677e+01 2.448446e+01
      vertex   -6.404636e+00 -7.608748e+01 2.508162e+01
    endloop
  endfacet
  facet normal -1.494293e-01 5.576775e-01 -8.164966e-01
    outer loop
      vertex   -6.608709e+00 -7.532587e+01 2.563916e+01
      vertex   -6.317997e+00 -7.531800e+01 2.559133e+01
      vertex   -6.404636e+00 -7.608748e+01 2.508162e+01
    endloop
  endfacet
  facet normal -1.494293e-01 5.576775e-01 -8.164966e-01
    outer loop
      vertex   -6.404636e+00 -7.608748e+01 2.508162e+01
      vertex   -6.317997e+00 -7.531800e+01 2.559133e+01
      vertex   -6.148937e+00 -7.594894e+01 2.512945e+01
    endloop
  endfacet
  facet normal -1.633400e-01 4.376682e-02 -9.855986e-01
    outer loop
      vertex   -6.608709e+00 -7.532587e+01 2.563916e+01
      vertex   -6.419416e+00 -7.461942e+01 2.563916e+01
      vertex   -6.317997e+00 -7.531800e+01 2.559133e+01
    endloop
  endfacet
  facet normal -1.633400e-01 4.376682e-02 -9.855986e-01
    outer loop
      vertex   -6.317997e+00 -7.531800e+01 2.559133e+01
      vertex   -6.419416e+00 -7.461942e+01 2.563916e+01
      vertex   -6.098382e+00 -7.449838e+01 2.559133e+01
    endloop
  endfacet
  facet normal 5.773502e-01 5.773503e-01 -5.773503e-01
    outer loop
      vertex   -2.183014e+01 -7.124730e+01 1.449630e+01
      vertex   -2.162607e+01 -7.200891e+01 1.393876e+01
      vertex   -3.563196e+01 -6.754911e+01 4.392670e+00
    endloop
  endfacet
  facet normal 5.773502e-01 5.773503e-01 -5.773503e-01
    outer loop
      vertex   -3.563196e+01 -6.754911e+01 4.392670e+00
      vertex   -2.162607e+01 -7.200891e+01 1.393876e+01
      vertex   -3.542788e+01 -6.831073e+01 3.835131e+00
    endloop
  endfacet
  facet normal 5.576775e-01 -1.494292e-01 -8.164966e-01
    outer loop
      vertex   -2.183014e+01 -7.124730e+01 1.449630e+01
      vertex   -3.563196e+01 -6.754911e+01 4.392670e+00
      vertex   -2.164085e+01 -7.054085e+01 1.449630e+01
    endloop
  endfacet
  facet normal 5.576775e-01 -1.494292e-01 -8.164966e-01
    outer loop
      vertex   -2.164085e+01 -7.054085e+01 1.449630e+01
      vertex   -3.563196e+01 -6.754911e+01 4.392670e+00
      vertex   -3.544266e+01 -6.684266e+01 4.392670e+00
    endloop
  endfacet
  facet normal 5.773502e-01 5.773503e-01 -5.773503e-01
    outer loop
      vertex   -2.137037e+01 -7.187037e+01 1.398659e+01
      vertex   -2.153943e+01 -7.123943e+01 1.444847e+01
      vertex   -1.703265e+01 -7.303266e+01 1.716202e+01
    endloop
  endfacet
  facet normal 5.773502e-01 5.773503e-01 -5.773503e-01
    outer loop
      vertex   -1.703265e+01 -7.303266e+01 1.716202e+01
      vertex   -2.153943e+01 -7.123943e+01 1.444847e+01
      vertex   -1.720171e+01 -7.240172e+01 1.762390e+01
    endloop
  endfacet
  facet normal 2.588190e-01 9.659258e-01 -4.672215e-14
    outer loop
      vertex   -2.089716e+01 -7.199716e+01 1.329377e+01
      vertex   -2.137037e+01 -7.187037e+01 1.398659e+01
      vertex   -1.655945e+01 -7.315945e+01 1.646919e+01
    endloop
  endfacet
  facet normal 2.588190e-01 9.659258e-01 -3.306710e-14
    outer loop
      vertex   -1.655945e+01 -7.315945e+01 1.646919e+01
      vertex   -2.137037e+01 -7.187037e+01 1.398659e+01
      vertex   -1.703265e+01 -7.303266e+01 1.716202e+01
    endloop
  endfacet
  facet normal 5.576775e-01 -1.494292e-01 -8.164966e-01
    outer loop
      vertex   -2.153943e+01 -7.123943e+01 1.444847e+01
      vertex   -2.131981e+01 -7.041981e+01 1.444847e+01
      vertex   -1.720171e+01 -7.240172e+01 1.762390e+01
    endloop
  endfacet
  facet normal 5.576775e-01 -1.494292e-01 -8.164966e-01
    outer loop
      vertex   -1.720171e+01 -7.240172e+01 1.762390e+01
      vertex   -2.131981e+01 -7.041981e+01 1.444847e+01
      vertex   -1.698210e+01 -7.158210e+01 1.762390e+01
    endloop
  endfacet
  facet normal -2.113249e-01 7.886751e-01 5.773503e-01
    outer loop
      vertex   -1.656501e+01 -7.336501e+01 1.674796e+01
      vertex   -5.675732e+00 -7.607573e+01 2.443663e+01
      vertex   -1.655945e+01 -7.315945e+01 1.646919e+01
    endloop
  endfacet
  facet normal -2.113249e-01 7.886751e-01 5.773503e-01
    outer loop
      vertex   -1.655945e+01 -7.315945e+01 1.646919e+01
      vertex   -5.675732e+00 -7.607573e+01 2.443663e+01
      vertex   1.171435e+01 -7.868565e+01 3.436705e+01
    endloop
  endfacet
  facet normal -2.113249e-01 7.886751e-01 5.773503e-01
    outer loop
      vertex   -1.655945e+01 -7.315945e+01 1.646919e+01
      vertex   1.171435e+01 -7.868565e+01 3.436705e+01
      vertex   -3.324013e+01 -6.664013e+01 1.458089e+00
    endloop
  endfacet
  facet normal -2.113249e-01 7.886751e-01 5.773503e-01
    outer loop
      vertex   -1.656501e+01 -7.336501e+01 1.674796e+01
      vertex   -5.996766e+00 -7.619677e+01 2.448446e+01
      vertex   -5.675732e+00 -7.607573e+01 2.443663e+01
    endloop
  endfacet
  facet normal -2.113249e-01 7.886751e-01 5.773503e-01
    outer loop
      vertex   -5.675732e+00 -7.607573e+01 2.443663e+01
      vertex   -1.338019e+00 -7.723802e+01 2.761205e+01
      vertex   1.171435e+01 -7.868565e+01 3.436705e+01
    endloop
  endfacet
  facet normal -2.113249e-01 7.886751e-01 5.773503e-01
    outer loop
      vertex   1.171435e+01 -7.868565e+01 3.436705e+01
      vertex   -1.338019e+00 -7.723802e+01 2.761205e+01
      vertex   9.934472e+00 -8.046553e+01 3.614693e+01
    endloop
  endfacet
  facet normal -2.113249e-01 7.886751e-01 5.773503e-01
    outer loop
      vertex   9.934472e+00 -8.046553e+01 3.614693e+01
      vertex   -1.338019e+00 -7.723802e+01 2.761205e+01
      vertex   -1.343583e+00 -7.744358e+01 2.789082e+01
    endloop
  endfacet
  facet normal -2.113249e-01 7.886751e-01 5.773503e-01
    outer loop
      vertex   -1.655945e+01 -7.315945e+01 1.646919e+01
      vertex   -3.324013e+01 -6.664013e+01 1.458089e+00
      vertex   -2.089716e+01 -7.199716e+01 1.329377e+01
    endloop
  endfacet
  facet normal -2.113249e-01 7.886751e-01 5.773503e-01
    outer loop
      vertex   -2.089716e+01 -7.199716e+01 1.329377e+01
      vertex   -3.324013e+01 -6.664013e+01 1.458089e+00
      vertex   -3.502001e+01 -6.842001e+01 3.237969e+00
    endloop
  endfacet
  facet normal -2.113249e-01 7.886751e-01 5.773503e-01
    outer loop
      vertex   -2.089716e+01 -7.199716e+01 1.329377e+01
      vertex   -3.502001e+01 -6.842001e+01 3.237969e+00
      vertex   -2.121820e+01 -7.211820e+01 1.334160e+01
    endloop
  endfacet
  facet normal 2.588190e-01 9.659258e-01 -4.064778e-14
    outer loop
      vertex   -2.121820e+01 -7.211820e+01 1.334160e+01
      vertex   -3.502001e+01 -6.842001e+01 3.237969e+00
      vertex   -2.162607e+01 -7.200891e+01 1.393876e+01
    endloop
  endfacet
  facet normal 2.588190e-01 9.659258e-01 -4.385727e-14
    outer loop
      vertex   -2.162607e+01 -7.200891e+01 1.393876e+01
      vertex   -3.502001e+01 -6.842001e+01 3.237969e+00
      vertex   -3.542788e+01 -6.831073e+01 3.835131e+00
    endloop
  endfacet
  facet normal -3.746649e-01 8.324419e-01 -4.082483e-01
    outer loop
      vertex   -2.089716e+01 -7.199716e+01 1.329377e+01
      vertex   -2.121820e+01 -7.211820e+01 1.334160e+01
      vertex   -2.137037e+01 -7.187037e+01 1.398659e+01
    endloop
  endfacet
  facet normal -3.746649e-01 8.324419e-01 -4.082483e-01
    outer loop
      vertex   -2.137037e+01 -7.187037e+01 1.398659e+01
      vertex   -2.121820e+01 -7.211820e+01 1.334160e+01
      vertex   -2.162607e+01 -7.200891e+01 1.393876e+01
    endloop
  endfacet
  facet normal -1.494293e-01 5.576775e-01 -8.164966e-01
    outer loop
      vertex   -2.183014e+01 -7.124730e+01 1.449630e+01
      vertex   -2.153943e+01 -7.123943e+01 1.444847e+01
      vertex   -2.162607e+01 -7.200891e+01 1.393876e+01
    endloop
  endfacet
  facet normal -1.494293e-01 5.576775e-01 -8.164966e-01
    outer loop
      vertex   -2.162607e+01 -7.200891e+01 1.393876e+01
      vertex   -2.153943e+01 -7.123943e+01 1.444847e+01
      vertex   -2.137037e+01 -7.187037e+01 1.398659e+01
    endloop
  endfacet
  facet normal -1.633400e-01 4.376682e-02 -9.855986e-01
    outer loop
      vertex   -2.183014e+01 -7.124730e+01 1.449630e+01
      vertex   -2.164085e+01 -7.054085e+01 1.449630e+01
      vertex   -2.153943e+01 -7.123943e+01 1.444847e+01
    endloop
  endfacet
  facet normal -1.633400e-01 4.376682e-02 -9.855986e-01
    outer loop
      vertex   -2.153943e+01 -7.123943e+01 1.444847e+01
      vertex   -2.164085e+01 -7.054085e+01 1.449630e+01
      vertex   -2.131981e+01 -7.041981e+01 1.444847e+01
    endloop
  endfacet
  facet normal 2.113249e-01 -7.886751e-01 -5.773503e-01
    outer loop
      vertex   -6.419416e+00 -7.461942e+01 2.563916e+01
      vertex   -1.698766e+01 -7.178766e+01 1.790266e+01
      vertex   -6.098382e+00 -7.449838e+01 2.559133e+01
    endloop
  endfacet
  facet normal 2.113249e-01 -7.886751e-01 -5.773503e-01
    outer loop
      vertex   -6.098382e+00 -7.449838e+01 2.559133e+01
      vertex   -1.698766e+01 -7.178766e+01 1.790266e+01
      vertex   -1.698210e+01 -7.158210e+01 1.762390e+01
    endloop
  endfacet
  facet normal 2.113249e-01 -7.886751e-01 -5.773503e-01
    outer loop
      vertex   -6.098382e+00 -7.449838e+01 2.559133e+01
      vertex   -1.698210e+01 -7.158210e+01 1.762390e+01
      vertex   1.013700e+01 -7.826300e+01 3.667645e+01
    endloop
  endfacet
  facet normal 2.113249e-01 -7.886751e-01 -5.773503e-01
    outer loop
      vertex   1.013700e+01 -7.826300e+01 3.667645e+01
      vertex   -1.698210e+01 -7.158210e+01 1.762390e+01
      vertex   -3.481748e+01 -6.621748e+01 3.767490e+00
    endloop
  endfacet
  facet normal 2.113249e-01 -7.886751e-01 -5.773503e-01
    outer loop
      vertex   -3.481748e+01 -6.621748e+01 3.767490e+00
      vertex   -1.698210e+01 -7.158210e+01 1.762390e+01
      vertex   -2.131981e+01 -7.041981e+01 1.444847e+01
    endloop
  endfacet
  facet normal 2.113249e-01 -7.886751e-01 -5.773503e-01
    outer loop
      vertex   -3.481748e+01 -6.621748e+01 3.767490e+00
      vertex   -2.131981e+01 -7.041981e+01 1.444847e+01
      vertex   -3.544266e+01 -6.684266e+01 4.392670e+00
    endloop
  endfacet
  facet normal 2.113249e-01 -7.886751e-01 -5.773503e-01
    outer loop
      vertex   -3.544266e+01 -6.684266e+01 4.392670e+00
      vertex   -2.131981e+01 -7.041981e+01 1.444847e+01
      vertex   -2.164085e+01 -7.054085e+01 1.449630e+01
    endloop
  endfacet
  facet normal 2.113249e-01 -7.886751e-01 -5.773503e-01
    outer loop
      vertex   -6.098382e+00 -7.449838e+01 2.559133e+01
      vertex   1.013700e+01 -7.826300e+01 3.667645e+01
      vertex   -1.760668e+00 -7.566067e+01 2.876675e+01
    endloop
  endfacet
  facet normal 2.113249e-01 -7.886751e-01 -5.773503e-01
    outer loop
      vertex   -1.760668e+00 -7.566067e+01 2.876675e+01
      vertex   1.013700e+01 -7.826300e+01 3.667645e+01
      vertex   9.511822e+00 -7.888818e+01 3.730163e+01
    endloop
  endfacet
  facet normal 2.113249e-01 -7.886751e-01 -5.773503e-01
    outer loop
      vertex   -1.760668e+00 -7.566067e+01 2.876675e+01
      vertex   9.511822e+00 -7.888818e+01 3.730163e+01
      vertex   -1.766233e+00 -7.586623e+01 2.904552e+01
    endloop
  endfacet
  facet normal 9.520151e-01 -2.550917e-01 -1.691020e-01
    outer loop
      vertex   -1.698210e+01 -7.158210e+01 1.762390e+01
      vertex   -1.698766e+01 -7.178766e+01 1.790266e+01
      vertex   -1.720171e+01 -7.240172e+01 1.762390e+01
    endloop
  endfacet
  facet normal 9.520151e-01 -2.550917e-01 -1.691020e-01
    outer loop
      vertex   -1.720171e+01 -7.240172e+01 1.762390e+01
      vertex   -1.698766e+01 -7.178766e+01 1.790266e+01
      vertex   -1.717696e+01 -7.249411e+01 1.790266e+01
    endloop
  endfacet
  facet normal 9.659258e-01 2.588191e-01 -4.360705e-08
    outer loop
      vertex   -1.703265e+01 -7.303266e+01 1.716202e+01
      vertex   -1.720171e+01 -7.240172e+01 1.762390e+01
      vertex   -1.697288e+01 -7.325573e+01 1.734513e+01
    endloop
  endfacet
  facet normal 9.659258e-01 2.588191e-01 -4.360704e-08
    outer loop
      vertex   -1.697288e+01 -7.325573e+01 1.734513e+01
      vertex   -1.720171e+01 -7.240172e+01 1.762390e+01
      vertex   -1.717696e+01 -7.249411e+01 1.790266e+01
    endloop
  endfacet
  facet normal 7.406902e-01 5.335835e-01 4.082483e-01
    outer loop
      vertex   -1.697288e+01 -7.325573e+01 1.734513e+01
      vertex   -1.656501e+01 -7.336501e+01 1.674796e+01
      vertex   -1.703265e+01 -7.303266e+01 1.716202e+01
    endloop
  endfacet
  facet normal 7.406902e-01 5.335835e-01 4.082483e-01
    outer loop
      vertex   -1.703265e+01 -7.303266e+01 1.716202e+01
      vertex   -1.656501e+01 -7.336501e+01 1.674796e+01
      vertex   -1.655945e+01 -7.315945e+01 1.646919e+01
    endloop
  endfacet
  facet normal 2.113249e-01 -7.886751e-01 -5.773503e-01
    outer loop
      vertex   -2.619574e+00 -7.905095e+01 2.904552e+01
      vertex   -2.062035e+00 -7.849341e+01 2.848799e+01
      vertex   8.658481e+00 -8.207289e+01 3.730163e+01
    endloop
  endfacet
  facet normal 2.113249e-01 -7.886751e-01 -5.773503e-01
    outer loop
      vertex   8.658481e+00 -8.207289e+01 3.730163e+01
      vertex   -2.062035e+00 -7.849341e+01 2.848799e+01
      vertex   9.216020e+00 -8.151535e+01 3.674409e+01
    endloop
  endfacet
  facet normal -2.588190e-01 -9.659258e-01 4.343824e-14
    outer loop
      vertex   -2.062035e+00 -7.849341e+01 2.848799e+01
      vertex   -1.654166e+00 -7.860270e+01 2.789082e+01
      vertex   9.216020e+00 -8.151535e+01 3.674409e+01
    endloop
  endfacet
  facet normal -2.588190e-01 -9.659258e-01 1.515880e-14
    outer loop
      vertex   9.216020e+00 -8.151535e+01 3.674409e+01
      vertex   -1.654166e+00 -7.860270e+01 2.789082e+01
      vertex   9.623889e+00 -8.162464e+01 3.614693e+01
    endloop
  endfacet
  facet normal -2.113249e-01 7.886751e-01 5.773503e-01
    outer loop
      vertex   8.312380e+00 -8.601899e+01 3.633004e+01
      vertex   1.027537e+01 -8.405600e+01 3.436705e+01
      vertex   -3.664210e+01 -7.397348e+01 3.421080e+00
    endloop
  endfacet
  facet normal -2.113249e-01 7.886751e-01 5.773503e-01
    outer loop
      vertex   -3.664210e+01 -7.397348e+01 3.421080e+00
      vertex   1.027537e+01 -8.405600e+01 3.436705e+01
      vertex   -3.467911e+01 -7.201049e+01 1.458089e+00
    endloop
  endfacet
  facet normal 2.113249e-01 -7.886751e-01 -5.773503e-01
    outer loop
      vertex   -3.686894e+01 -7.493757e+01 2.230155e+00
      vertex   -3.623878e+01 -7.430741e+01 1.600000e+00
      vertex   8.608234e+00 -8.712314e+01 3.552175e+01
    endloop
  endfacet
  facet normal 2.113249e-01 -7.886751e-01 -5.773503e-01
    outer loop
      vertex   8.608234e+00 -8.712314e+01 3.552175e+01
      vertex   -3.623878e+01 -7.430741e+01 1.600000e+00
      vertex   1.083839e+01 -8.489298e+01 3.329160e+01
    endloop
  endfacet
  facet normal 2.113249e-01 -7.886751e-01 -5.773503e-01
    outer loop
      vertex   1.083839e+01 -8.489298e+01 3.329160e+01
      vertex   -3.623878e+01 -7.430741e+01 1.600000e+00
      vertex   -3.245314e+01 -7.329305e+01 1.600000e+00
    endloop
  endfacet
  facet normal 2.113249e-01 -7.886751e-01 -5.773503e-01
    outer loop
      vertex   -3.245314e+01 -7.329305e+01 1.600000e+00
      vertex   -3.623878e+01 -7.430741e+01 1.600000e+00
      vertex   -3.463878e+01 -7.270741e+01 4.440892e-14
    endloop
  endfacet
  facet normal 2.113249e-01 -7.886751e-01 -5.773503e-01
    outer loop
      vertex   -3.625646e+01 -7.158784e+01 3.767490e+00
      vertex   8.698020e+00 -8.363335e+01 3.667645e+01
      vertex   -3.706475e+01 -7.239613e+01 4.575780e+00
    endloop
  endfacet
  facet normal 2.113249e-01 -7.886751e-01 -5.773503e-01
    outer loop
      vertex   -3.706475e+01 -7.239613e+01 4.575780e+00
      vertex   8.698020e+00 -8.363335e+01 3.667645e+01
      vertex   7.889730e+00 -8.444164e+01 3.748474e+01
    endloop
  endfacet
  facet normal -2.588190e-01 -9.659258e-01 2.789047e-14
    outer loop
      vertex   -1.728347e+01 -7.441484e+01 1.734513e+01
      vertex   -1.687560e+01 -7.452413e+01 1.674796e+01
      vertex   -6.715218e+00 -7.724659e+01 2.508162e+01
    endloop
  endfacet
  facet normal -2.588190e-01 -9.659258e-01 4.311581e-14
    outer loop
      vertex   -6.715218e+00 -7.724659e+01 2.508162e+01
      vertex   -1.687560e+01 -7.452413e+01 1.674796e+01
      vertex   -6.307349e+00 -7.735588e+01 2.448446e+01
    endloop
  endfacet
  facet normal 2.113249e-01 -7.886751e-01 -5.773503e-01
    outer loop
      vertex   -1.784100e+01 -7.497238e+01 1.790266e+01
      vertex   -1.728347e+01 -7.441484e+01 1.734513e+01
      vertex   -7.272757e+00 -7.780413e+01 2.563916e+01
    endloop
  endfacet
  facet normal 2.113249e-01 -7.886751e-01 -5.773503e-01
    outer loop
      vertex   -7.272757e+00 -7.780413e+01 2.563916e+01
      vertex   -1.728347e+01 -7.441484e+01 1.734513e+01
      vertex   -6.715218e+00 -7.724659e+01 2.508162e+01
    endloop
  endfacet
  facet normal 5.576775e-01 -1.494292e-01 -8.164966e-01
    outer loop
      vertex   -1.803030e+01 -7.567883e+01 1.790266e+01
      vertex   -1.784100e+01 -7.497238e+01 1.790266e+01
      vertex   -7.462050e+00 -7.851058e+01 2.563916e+01
    endloop
  endfacet
  facet normal 5.576775e-01 -1.494292e-01 -8.164966e-01
    outer loop
      vertex   -7.462050e+00 -7.851058e+01 2.563916e+01
      vertex   -1.784100e+01 -7.497238e+01 1.790266e+01
      vertex   -7.272757e+00 -7.780413e+01 2.563916e+01
    endloop
  endfacet
  facet normal 2.113249e-01 -7.886751e-01 -5.773503e-01
    outer loop
      vertex   -2.225334e+00 -7.865671e+01 2.830487e+01
      vertex   -2.687214e+00 -7.911859e+01 2.876675e+01
      vertex   -6.563048e+00 -7.749442e+01 2.512945e+01
    endloop
  endfacet
  facet normal 2.113249e-01 -7.886751e-01 -5.773503e-01
    outer loop
      vertex   -6.563048e+00 -7.749442e+01 2.512945e+01
      vertex   -2.687214e+00 -7.911859e+01 2.876675e+01
      vertex   -7.024928e+00 -7.795630e+01 2.559133e+01
    endloop
  endfacet
  facet normal -2.588190e-01 -9.659258e-01 3.249616e-14
    outer loop
      vertex   -1.752129e+00 -7.878350e+01 2.761205e+01
      vertex   -2.225334e+00 -7.865671e+01 2.830487e+01
      vertex   -6.089843e+00 -7.762121e+01 2.443663e+01
    endloop
  endfacet
  facet normal -2.588190e-01 -9.659258e-01 3.249616e-14
    outer loop
      vertex   -6.089843e+00 -7.762121e+01 2.443663e+01
      vertex   -2.225334e+00 -7.865671e+01 2.830487e+01
      vertex   -6.563048e+00 -7.749442e+01 2.512945e+01
    endloop
  endfacet
  facet normal 5.576775e-01 -1.494292e-01 -8.164966e-01
    outer loop
      vertex   -2.687214e+00 -7.911859e+01 2.876675e+01
      vertex   -2.906830e+00 -7.993820e+01 2.876675e+01
      vertex   -7.024928e+00 -7.795630e+01 2.559133e+01
    endloop
  endfacet
  facet normal 5.576775e-01 -1.494292e-01 -8.164966e-01
    outer loop
      vertex   -7.024928e+00 -7.795630e+01 2.559133e+01
      vertex   -2.906830e+00 -7.993820e+01 2.876675e+01
      vertex   -7.244543e+00 -7.877592e+01 2.559133e+01
    endloop
  endfacet
  facet normal 5.576775e-01 -1.494292e-01 -8.164966e-01
    outer loop
      vertex   -2.808866e+00 -7.975740e+01 2.904552e+01
      vertex   -2.619574e+00 -7.905095e+01 2.904552e+01
      vertex   8.469189e+00 -8.277934e+01 3.730163e+01
    endloop
  endfacet
  facet normal 5.576775e-01 -1.494292e-01 -8.164966e-01
    outer loop
      vertex   8.469189e+00 -8.277934e+01 3.730163e+01
      vertex   -2.619574e+00 -7.905095e+01 2.904552e+01
      vertex   8.658481e+00 -8.207289e+01 3.730163e+01
    endloop
  endfacet
  facet normal 9.520151e-01 -2.550917e-01 -1.691020e-01
    outer loop
      vertex   -2.906830e+00 -7.993820e+01 2.876675e+01
      vertex   -2.687214e+00 -7.911859e+01 2.876675e+01
      vertex   -2.808866e+00 -7.975740e+01 2.904552e+01
    endloop
  endfacet
  facet normal 9.520151e-01 -2.550917e-01 -1.691020e-01
    outer loop
      vertex   -2.808866e+00 -7.975740e+01 2.904552e+01
      vertex   -2.687214e+00 -7.911859e+01 2.876675e+01
      vertex   -2.619574e+00 -7.905095e+01 2.904552e+01
    endloop
  endfacet
  facet normal 7.071068e-01 -7.071068e-01 -4.360699e-08
    outer loop
      vertex   -2.225334e+00 -7.865671e+01 2.830487e+01
      vertex   -2.062035e+00 -7.849341e+01 2.848799e+01
      vertex   -2.687214e+00 -7.911859e+01 2.876675e+01
    endloop
  endfacet
  facet normal 7.071068e-01 -7.071068e-01 -4.360701e-08
    outer loop
      vertex   -2.687214e+00 -7.911859e+01 2.876675e+01
      vertex   -2.062035e+00 -7.849341e+01 2.848799e+01
      vertex   -2.619574e+00 -7.905095e+01 2.904552e+01
    endloop
  endfacet
  facet normal 3.746649e-01 -8.324419e-01 4.082483e-01
    outer loop
      vertex   -2.062035e+00 -7.849341e+01 2.848799e+01
      vertex   -2.225334e+00 -7.865671e+01 2.830487e+01
      vertex   -1.654166e+00 -7.860270e+01 2.789082e+01
    endloop
  endfacet
  facet normal 3.746649e-01 -8.324419e-01 4.082483e-01
    outer loop
      vertex   -1.654166e+00 -7.860270e+01 2.789082e+01
      vertex   -2.225334e+00 -7.865671e+01 2.830487e+01
      vertex   -1.752129e+00 -7.878350e+01 2.761205e+01
    endloop
  endfacet
  facet normal -7.406902e-01 -5.335835e-01 -4.082483e-01
    outer loop
      vertex   -6.089843e+00 -7.762121e+01 2.443663e+01
      vertex   -6.563048e+00 -7.749442e+01 2.512945e+01
      vertex   -6.307349e+00 -7.735588e+01 2.448446e+01
    endloop
  endfacet
  facet normal -7.406902e-01 -5.335835e-01 -4.082483e-01
    outer loop
      vertex   -6.307349e+00 -7.735588e+01 2.448446e+01
      vertex   -6.563048e+00 -7.749442e+01 2.512945e+01
      vertex   -6.715218e+00 -7.724659e+01 2.508162e+01
    endloop
  endfacet
  facet normal -4.082483e-01 -4.082483e-01 -8.164966e-01
    outer loop
      vertex   -7.272757e+00 -7.780413e+01 2.563916e+01
      vertex   -6.715218e+00 -7.724659e+01 2.508162e+01
      vertex   -7.024928e+00 -7.795630e+01 2.559133e+01
    endloop
  endfacet
  facet normal -4.082483e-01 -4.082483e-01 -8.164966e-01
    outer loop
      vertex   -7.024928e+00 -7.795630e+01 2.559133e+01
      vertex   -6.715218e+00 -7.724659e+01 2.508162e+01
      vertex   -6.563048e+00 -7.749442e+01 2.512945e+01
    endloop
  endfacet
  facet normal -1.633400e-01 4.376682e-02 -9.855986e-01
    outer loop
      vertex   -7.272757e+00 -7.780413e+01 2.563916e+01
      vertex   -7.024928e+00 -7.795630e+01 2.559133e+01
      vertex   -7.462050e+00 -7.851058e+01 2.563916e+01
    endloop
  endfacet
  facet normal -1.633400e-01 4.376682e-02 -9.855986e-01
    outer loop
      vertex   -7.462050e+00 -7.851058e+01 2.563916e+01
      vertex   -7.024928e+00 -7.795630e+01 2.559133e+01
      vertex   -7.244543e+00 -7.877592e+01 2.559133e+01
    endloop
  endfacet
  facet normal 2.113249e-01 -7.886751e-01 -5.773503e-01
    outer loop
      vertex   -2.193665e+01 -7.316802e+01 1.393876e+01
      vertex   -2.249419e+01 -7.372556e+01 1.449630e+01
      vertex   -3.573846e+01 -6.946984e+01 3.835131e+00
    endloop
  endfacet
  facet normal 2.113249e-01 -7.886751e-01 -5.773503e-01
    outer loop
      vertex   -3.573846e+01 -6.946984e+01 3.835131e+00
      vertex   -2.249419e+01 -7.372556e+01 1.449630e+01
      vertex   -3.629600e+01 -7.002737e+01 4.392670e+00
    endloop
  endfacet
  facet normal 5.576775e-01 -1.494292e-01 -8.164966e-01
    outer loop
      vertex   -2.268348e+01 -7.443201e+01 1.449630e+01
      vertex   -3.648530e+01 -7.073382e+01 4.392670e+00
      vertex   -2.249419e+01 -7.372556e+01 1.449630e+01
    endloop
  endfacet
  facet normal 5.576775e-01 -1.494292e-01 -8.164966e-01
    outer loop
      vertex   -2.249419e+01 -7.372556e+01 1.449630e+01
      vertex   -3.648530e+01 -7.073382e+01 4.392670e+00
      vertex   -3.629600e+01 -7.002737e+01 4.392670e+00
    endloop
  endfacet
  facet normal 2.113249e-01 -7.886751e-01 -5.773503e-01
    outer loop
      vertex   -2.224636e+01 -7.387773e+01 1.444847e+01
      vertex   -2.178448e+01 -7.341585e+01 1.398659e+01
      vertex   -1.790865e+01 -7.504002e+01 1.762390e+01
    endloop
  endfacet
  facet normal 2.113249e-01 -7.886751e-01 -5.773503e-01
    outer loop
      vertex   -1.790865e+01 -7.504002e+01 1.762390e+01
      vertex   -2.178448e+01 -7.341585e+01 1.398659e+01
      vertex   -1.744676e+01 -7.457814e+01 1.716202e+01
    endloop
  endfacet
  facet normal -2.588190e-01 -9.659258e-01 3.282921e-14
    outer loop
      vertex   -2.178448e+01 -7.341585e+01 1.398659e+01
      vertex   -2.131127e+01 -7.354265e+01 1.329377e+01
      vertex   -1.744676e+01 -7.457814e+01 1.716202e+01
    endloop
  endfacet
  facet normal -2.588190e-01 -9.659258e-01 4.537805e-14
    outer loop
      vertex   -1.744676e+01 -7.457814e+01 1.716202e+01
      vertex   -2.131127e+01 -7.354265e+01 1.329377e+01
      vertex   -1.697356e+01 -7.470493e+01 1.646919e+01
    endloop
  endfacet
  facet normal 5.576775e-01 -1.494292e-01 -8.164966e-01
    outer loop
      vertex   -2.246597e+01 -7.469735e+01 1.444847e+01
      vertex   -2.224636e+01 -7.387773e+01 1.444847e+01
      vertex   -1.812826e+01 -7.585963e+01 1.762390e+01
    endloop
  endfacet
  facet normal 5.576775e-01 -1.494292e-01 -8.164966e-01
    outer loop
      vertex   -1.812826e+01 -7.585963e+01 1.762390e+01
      vertex   -2.224636e+01 -7.387773e+01 1.444847e+01
      vertex   -1.790865e+01 -7.504002e+01 1.762390e+01
    endloop
  endfacet
  facet normal -5.773502e-01 -5.773503e-01 5.773503e-01
    outer loop
      vertex   -6.307349e+00 -7.735588e+01 2.448446e+01
      vertex   -1.687560e+01 -7.452413e+01 1.674796e+01
      vertex   -6.089843e+00 -7.762121e+01 2.443663e+01
    endloop
  endfacet
  facet normal -5.773502e-01 -5.773503e-01 5.773503e-01
    outer loop
      vertex   -6.089843e+00 -7.762121e+01 2.443663e+01
      vertex   -1.687560e+01 -7.452413e+01 1.674796e+01
      vertex   -1.697356e+01 -7.470493e+01 1.646919e+01
    endloop
  endfacet
  facet normal -5.773502e-01 -5.773503e-01 5.773503e-01
    outer loop
      vertex   -6.089843e+00 -7.762121e+01 2.443663e+01
      vertex   -1.697356e+01 -7.470493e+01 1.646919e+01
      vertex   1.027537e+01 -8.405600e+01 3.436705e+01
    endloop
  endfacet
  facet normal -5.773502e-01 -5.773503e-01 5.773503e-01
    outer loop
      vertex   1.027537e+01 -8.405600e+01 3.436705e+01
      vertex   -1.697356e+01 -7.470493e+01 1.646919e+01
      vertex   -3.467911e+01 -7.201049e+01 1.458089e+00
    endloop
  endfacet
  facet normal -5.773502e-01 -5.773503e-01 5.773503e-01
    outer loop
      vertex   -3.467911e+01 -7.201049e+01 1.458089e+00
      vertex   -1.697356e+01 -7.470493e+01 1.646919e+01
      vertex   -2.131127e+01 -7.354265e+01 1.329377e+01
    endloop
  endfacet
  facet normal -5.773502e-01 -5.773503e-01 5.773503e-01
    outer loop
      vertex   -3.467911e+01 -7.201049e+01 1.458089e+00
      vertex   -2.131127e+01 -7.354265e+01 1.329377e+01
      vertex   -3.533060e+01 -6.957912e+01 3.237969e+00
    endloop
  endfacet
  facet normal -5.773502e-01 -5.773503e-01 5.773503e-01
    outer loop
      vertex   -3.533060e+01 -6.957912e+01 3.237969e+00
      vertex   -2.131127e+01 -7.354265e+01 1.329377e+01
      vertex   -2.152878e+01 -7.327731e+01 1.334160e+01
    endloop
  endfacet
  facet normal -5.773502e-01 -5.773503e-01 5.773503e-01
    outer loop
      vertex   -6.089843e+00 -7.762121e+01 2.443663e+01
      vertex   1.027537e+01 -8.405600e+01 3.436705e+01
      vertex   -1.752129e+00 -7.878350e+01 2.761205e+01
    endloop
  endfacet
  facet normal -5.773502e-01 -5.773503e-01 5.773503e-01
    outer loop
      vertex   -1.752129e+00 -7.878350e+01 2.761205e+01
      vertex   1.027537e+01 -8.405600e+01 3.436705e+01
      vertex   9.623889e+00 -8.162464e+01 3.614693e+01
    endloop
  endfacet
  facet normal -5.773502e-01 -5.773503e-01 5.773503e-01
    outer loop
      vertex   -1.752129e+00 -7.878350e+01 2.761205e+01
      vertex   9.623889e+00 -8.162464e+01 3.614693e+01
      vertex   -1.654166e+00 -7.860270e+01 2.789082e+01
    endloop
  endfacet
  facet normal -2.588190e-01 -9.659258e-01 2.772307e-14
    outer loop
      vertex   -2.193665e+01 -7.316802e+01 1.393876e+01
      vertex   -3.573846e+01 -6.946984e+01 3.835131e+00
      vertex   -2.152878e+01 -7.327731e+01 1.334160e+01
    endloop
  endfacet
  facet normal -2.588190e-01 -9.659258e-01 2.886808e-14
    outer loop
      vertex   -2.152878e+01 -7.327731e+01 1.334160e+01
      vertex   -3.573846e+01 -6.946984e+01 3.835131e+00
      vertex   -3.533060e+01 -6.957912e+01 3.237969e+00
    endloop
  endfacet
  facet normal -7.406902e-01 -5.335835e-01 -4.082483e-01
    outer loop
      vertex   -2.131127e+01 -7.354265e+01 1.329377e+01
      vertex   -2.178448e+01 -7.341585e+01 1.398659e+01
      vertex   -2.152878e+01 -7.327731e+01 1.334160e+01
    endloop
  endfacet
  facet normal -7.406902e-01 -5.335835e-01 -4.082483e-01
    outer loop
      vertex   -2.152878e+01 -7.327731e+01 1.334160e+01
      vertex   -2.178448e+01 -7.341585e+01 1.398659e+01
      vertex   -2.193665e+01 -7.316802e+01 1.393876e+01
    endloop
  endfacet
  facet normal -4.082483e-01 -4.082483e-01 -8.164966e-01
    outer loop
      vertex   -2.249419e+01 -7.372556e+01 1.449630e+01
      vertex   -2.193665e+01 -7.316802e+01 1.393876e+01
      vertex   -2.224636e+01 -7.387773e+01 1.444847e+01
    endloop
  endfacet
  facet normal -4.082483e-01 -4.082483e-01 -8.164966e-01
    outer loop
      vertex   -2.224636e+01 -7.387773e+01 1.444847e+01
      vertex   -2.193665e+01 -7.316802e+01 1.393876e+01
      vertex   -2.178448e+01 -7.341585e+01 1.398659e+01
    endloop
  endfacet
  facet normal -1.633400e-01 4.376682e-02 -9.855986e-01
    outer loop
      vertex   -2.249419e+01 -7.372556e+01 1.449630e+01
      vertex   -2.224636e+01 -7.387773e+01 1.444847e+01
      vertex   -2.268348e+01 -7.443201e+01 1.449630e+01
    endloop
  endfacet
  facet normal -1.633400e-01 4.376682e-02 -9.855986e-01
    outer loop
      vertex   -2.268348e+01 -7.443201e+01 1.449630e+01
      vertex   -2.224636e+01 -7.387773e+01 1.444847e+01
      vertex   -2.246597e+01 -7.469735e+01 1.444847e+01
    endloop
  endfacet
  facet normal 5.773502e-01 5.773503e-01 -5.773503e-01
    outer loop
      vertex   -1.803030e+01 -7.567883e+01 1.790266e+01
      vertex   -7.244543e+00 -7.877592e+01 2.559133e+01
      vertex   -1.812826e+01 -7.585963e+01 1.762390e+01
    endloop
  endfacet
  facet normal 5.773502e-01 5.773503e-01 -5.773503e-01
    outer loop
      vertex   -1.812826e+01 -7.585963e+01 1.762390e+01
      vertex   -7.244543e+00 -7.877592e+01 2.559133e+01
      vertex   8.698020e+00 -8.363335e+01 3.667645e+01
    endloop
  endfacet
  facet normal 5.773502e-01 5.773503e-01 -5.773503e-01
    outer loop
      vertex   -1.812826e+01 -7.585963e+01 1.762390e+01
      vertex   8.698020e+00 -8.363335e+01 3.667645e+01
      vertex   -3.625646e+01 -7.158784e+01 3.767490e+00
    endloop
  endfacet
  facet normal 5.773502e-01 5.773503e-01 -5.773503e-01
    outer loop
      vertex   -1.803030e+01 -7.567883e+01 1.790266e+01
      vertex   -7.462050e+00 -7.851058e+01 2.563916e+01
      vertex   -7.244543e+00 -7.877592e+01 2.559133e+01
    endloop
  endfacet
  facet normal 5.773502e-01 5.773503e-01 -5.773503e-01
    outer loop
      vertex   -7.244543e+00 -7.877592e+01 2.559133e+01
      vertex   -2.906830e+00 -7.993820e+01 2.876675e+01
      vertex   8.698020e+00 -8.363335e+01 3.667645e+01
    endloop
  endfacet
  facet normal 5.773502e-01 5.773503e-01 -5.773503e-01
    outer loop
      vertex   8.698020e+00 -8.363335e+01 3.667645e+01
      vertex   -2.906830e+00 -7.993820e+01 2.876675e+01
      vertex   8.469189e+00 -8.277934e+01 3.730163e+01
    endloop
  endfacet
  facet normal 5.773502e-01 5.773503e-01 -5.773503e-01
    outer loop
      vertex   8.469189e+00 -8.277934e+01 3.730163e+01
      vertex   -2.906830e+00 -7.993820e+01 2.876675e+01
      vertex   -2.808866e+00 -7.975740e+01 2.904552e+01
    endloop
  endfacet
  facet normal 5.773502e-01 5.773503e-01 -5.773503e-01
    outer loop
      vertex   -1.812826e+01 -7.585963e+01 1.762390e+01
      vertex   -3.625646e+01 -7.158784e+01 3.767490e+00
      vertex   -2.246597e+01 -7.469735e+01 1.444847e+01
    endloop
  endfacet
  facet normal 5.773502e-01 5.773503e-01 -5.773503e-01
    outer loop
      vertex   -2.246597e+01 -7.469735e+01 1.444847e+01
      vertex   -3.625646e+01 -7.158784e+01 3.767490e+00
      vertex   -3.648530e+01 -7.073382e+01 4.392670e+00
    endloop
  endfacet
  facet normal 5.773502e-01 5.773503e-01 -5.773503e-01
    outer loop
      vertex   -2.246597e+01 -7.469735e+01 1.444847e+01
      vertex   -3.648530e+01 -7.073382e+01 4.392670e+00
      vertex   -2.268348e+01 -7.443201e+01 1.449630e+01
    endloop
  endfacet
  facet normal 9.520151e-01 -2.550917e-01 -1.691020e-01
    outer loop
      vertex   -1.812826e+01 -7.585963e+01 1.762390e+01
      vertex   -1.790865e+01 -7.504002e+01 1.762390e+01
      vertex   -1.803030e+01 -7.567883e+01 1.790266e+01
    endloop
  endfacet
  facet normal 9.520151e-01 -2.550917e-01 -1.691020e-01
    outer loop
      vertex   -1.803030e+01 -7.567883e+01 1.790266e+01
      vertex   -1.790865e+01 -7.504002e+01 1.762390e+01
      vertex   -1.784100e+01 -7.497238e+01 1.790266e+01
    endloop
  endfacet
  facet normal 7.071068e-01 -7.071068e-01 -4.360702e-08
    outer loop
      vertex   -1.744676e+01 -7.457814e+01 1.716202e+01
      vertex   -1.728347e+01 -7.441484e+01 1.734513e+01
      vertex   -1.790865e+01 -7.504002e+01 1.762390e+01
    endloop
  endfacet
  facet normal 7.071068e-01 -7.071068e-01 -4.360700e-08
    outer loop
      vertex   -1.790865e+01 -7.504002e+01 1.762390e+01
      vertex   -1.728347e+01 -7.441484e+01 1.734513e+01
      vertex   -1.784100e+01 -7.497238e+01 1.790266e+01
    endloop
  endfacet
  facet normal 3.746649e-01 -8.324419e-01 4.082483e-01
    outer loop
      vertex   -1.728347e+01 -7.441484e+01 1.734513e+01
      vertex   -1.744676e+01 -7.457814e+01 1.716202e+01
      vertex   -1.687560e+01 -7.452413e+01 1.674796e+01
    endloop
  endfacet
  facet normal 3.746649e-01 -8.324419e-01 4.082483e-01
    outer loop
      vertex   -1.687560e+01 -7.452413e+01 1.674796e+01
      vertex   -1.744676e+01 -7.457814e+01 1.716202e+01
      vertex   -1.697356e+01 -7.470493e+01 1.646919e+01
    endloop
  endfacet
  facet normal -5.773503e-01 -5.773502e-01 5.773504e-01
    outer loop
      vertex   -4.144972e+01 -6.731834e+01 5.268600e+00
      vertex   -4.255386e+01 -6.702249e+01 4.460310e+00
      vertex   -4.067444e+01 -7.021170e+01 3.150517e+00
    endloop
  endfacet
  facet normal -5.773503e-01 -5.773502e-01 5.773504e-01
    outer loop
      vertex   -4.067444e+01 -7.021170e+01 3.150517e+00
      vertex   -4.255386e+01 -6.702249e+01 4.460310e+00
      vertex   -4.173757e+01 -7.006894e+01 2.230155e+00
    endloop
  endfacet
  facet normal -5.773502e-01 -5.773503e-01 5.773503e-01
    outer loop
      vertex   -4.067444e+01 -7.021170e+01 3.150517e+00
      vertex   -4.173757e+01 -7.006894e+01 2.230155e+00
      vertex   -3.706475e+01 -7.239613e+01 4.575780e+00
    endloop
  endfacet
  facet normal -5.773502e-01 -5.773503e-01 5.773503e-01
    outer loop
      vertex   -3.706475e+01 -7.239613e+01 4.575780e+00
      vertex   -4.173757e+01 -7.006894e+01 2.230155e+00
      vertex   -3.664210e+01 -7.397348e+01 3.421080e+00
    endloop
  endfacet
  facet normal -5.773502e-01 -5.773503e-01 5.773503e-01
    outer loop
      vertex   -3.664210e+01 -7.397348e+01 3.421080e+00
      vertex   -4.173757e+01 -7.006894e+01 2.230155e+00
      vertex   -3.686894e+01 -7.493757e+01 2.230155e+00
    endloop
  endfacet
  facet normal -5.773502e-01 -5.773503e-01 5.773503e-01
    outer loop
      vertex   -3.664210e+01 -7.397348e+01 3.421080e+00
      vertex   -3.686894e+01 -7.493757e+01 2.230155e+00
      vertex   8.608234e+00 -8.712314e+01 3.552175e+01
    endloop
  endfacet
  facet normal -5.773502e-01 -5.773503e-01 5.773503e-01
    outer loop
      vertex   8.608234e+00 -8.712314e+01 3.552175e+01
      vertex   8.312380e+00 -8.601899e+01 3.633004e+01
      vertex   -3.664210e+01 -7.397348e+01 3.421080e+00
    endloop
  endfacet
  facet normal -5.773502e-01 -5.773503e-01 5.773503e-01
    outer loop
      vertex   7.889730e+00 -8.444164e+01 3.748474e+01
      vertex   7.538351e+00 -8.313028e+01 3.844473e+01
      vertex   -3.706475e+01 -7.239613e+01 4.575780e+00
    endloop
  endfacet
  facet normal -5.773502e-01 -5.773503e-01 5.773503e-01
    outer loop
      vertex   -3.706475e+01 -7.239613e+01 4.575780e+00
      vertex   7.538351e+00 -8.313028e+01 3.844473e+01
      vertex   -4.067444e+01 -7.021170e+01 3.150517e+00
    endloop
  endfacet
  facet normal -4.082481e-01 -4.082481e-01 -8.164968e-01
    outer loop
      vertex   -3.623878e+01 -7.430741e+01 1.600000e+00
      vertex   -3.686894e+01 -7.493757e+01 2.230155e+00
      vertex   -4.110741e+01 -6.943878e+01 1.600000e+00
    endloop
  endfacet
  facet normal -4.082483e-01 -4.082483e-01 -8.164966e-01
    outer loop
      vertex   -4.110741e+01 -6.943878e+01 1.600000e+00
      vertex   -3.686894e+01 -7.493757e+01 2.230155e+00
      vertex   -4.173757e+01 -7.006894e+01 2.230155e+00
    endloop
  endfacet
  facet normal -7.886752e-01 2.113249e-01 -5.773502e-01
    outer loop
      vertex   -4.032371e+01 -6.479234e+01 2.230155e+00
      vertex   -4.009305e+01 -6.565314e+01 1.600000e+00
      vertex   -4.255386e+01 -6.702249e+01 4.460310e+00
    endloop
  endfacet
  facet normal -7.886752e-01 2.113249e-01 -5.773502e-01
    outer loop
      vertex   -4.255386e+01 -6.702249e+01 4.460310e+00
      vertex   -4.009305e+01 -6.565314e+01 1.600000e+00
      vertex   -4.110741e+01 -6.943878e+01 1.600000e+00
    endloop
  endfacet
  facet normal -7.886753e-01 2.113247e-01 -5.773501e-01
    outer loop
      vertex   -4.255386e+01 -6.702249e+01 4.460310e+00
      vertex   -4.110741e+01 -6.943878e+01 1.600000e+00
      vertex   -4.173757e+01 -7.006894e+01 2.230155e+00
    endloop
  endfacet
  facet normal -7.886751e-01 2.113249e-01 -5.773503e-01
    outer loop
      vertex   -4.009305e+01 -6.565314e+01 1.600000e+00
      vertex   -3.950741e+01 -6.783878e+01 3.552714e-14
      vertex   -4.110741e+01 -6.943878e+01 1.600000e+00
    endloop
  endfacet
  facet normal -1.494290e-01 5.576767e-01 -8.164972e-01
    outer loop
      vertex   -3.344238e+01 -6.387110e+01 1.600000e+00
      vertex   -4.009305e+01 -6.565314e+01 1.600000e+00
      vertex   -3.367304e+01 -6.301029e+01 2.230155e+00
    endloop
  endfacet
  facet normal -1.494292e-01 5.576773e-01 -8.164967e-01
    outer loop
      vertex   -3.367304e+01 -6.301029e+01 2.230155e+00
      vertex   -4.009305e+01 -6.565314e+01 1.600000e+00
      vertex   -4.032371e+01 -6.479234e+01 2.230155e+00
    endloop
  endfacet
  facet normal 5.576775e-01 -1.494291e-01 -8.164966e-01
    outer loop
      vertex   -3.067110e+01 -6.664238e+01 1.600000e+00
      vertex   1.262043e+01 -7.824231e+01 3.329160e+01
      vertex   -3.245314e+01 -7.329305e+01 1.600000e+00
    endloop
  endfacet
  facet normal 5.576775e-01 -1.494292e-01 -8.164966e-01
    outer loop
      vertex   -3.245314e+01 -7.329305e+01 1.600000e+00
      vertex   1.262043e+01 -7.824231e+01 3.329160e+01
      vertex   1.083839e+01 -8.489298e+01 3.329160e+01
    endloop
  endfacet
  facet normal -3.732557e-16 1.000135e-16 -1.000000e+00
    outer loop
      vertex   -8.422631e+00 -7.260384e+01 3.463395e-14
      vertex   -3.463878e+01 -7.270741e+01 4.440892e-14
      vertex   -3.285674e+01 -6.605674e+01 4.440892e-14
    endloop
  endfacet
  facet normal 1.438771e-15 -3.855175e-16 -1.000000e+00
    outer loop
      vertex   -3.285674e+01 -6.605674e+01 4.440892e-14
      vertex   -3.463878e+01 -7.270741e+01 4.440892e-14
      vertex   -3.950741e+01 -6.783878e+01 3.552714e-14
    endloop
  endfacet
  facet normal 1.334050e-15 5.305440e-18 -1.000000e+00
    outer loop
      vertex   -3.285674e+01 -6.605674e+01 4.440892e-14
      vertex   -3.950741e+01 -6.783878e+01 3.552714e-14
      vertex   -4.326030e+01 -4.243657e+01 3.065537e-14
    endloop
  endfacet
  facet normal 5.367215e-17 -1.838557e-16 -1.000000e+00
    outer loop
      vertex   -4.326030e+01 -4.243657e+01 3.065537e-14
      vertex   -3.950741e+01 -6.783878e+01 3.552714e-14
      vertex   -4.420308e+01 -4.272579e+01 3.065794e-14
    endloop
  endfacet
  facet normal 6.165968e-17 -1.823622e-16 -1.000000e+00
    outer loop
      vertex   -4.420308e+01 -4.272579e+01 3.065794e-14
      vertex   -3.950741e+01 -6.783878e+01 3.552714e-14
      vertex   -4.513488e+01 -4.304863e+01 3.065936e-14
    endloop
  endfacet
  facet normal 5.197263e-16 -7.837913e-17 -1.000000e+00
    outer loop
      vertex   -4.513488e+01 -4.304863e+01 3.065936e-14
      vertex   -3.950741e+01 -6.783878e+01 3.552714e-14
      vertex   -4.605451e+01 -4.340467e+01 3.020931e-14
    endloop
  endfacet
  facet normal -3.710093e-16 -4.685895e-16 -1.000000e+00
    outer loop
      vertex   -8.422631e+00 -7.260384e+01 3.463395e-14
      vertex   -8.574106e+00 -7.357828e+01 3.514676e-14
      vertex   -3.463878e+01 -7.270741e+01 4.440892e-14
    endloop
  endfacet
  facet normal -3.552805e-16 2.164006e-18 -1.000000e+00
    outer loop
      vertex   -3.463878e+01 -7.270741e+01 4.440892e-14
      vertex   -8.574106e+00 -7.357828e+01 3.514676e-14
      vertex   -8.760422e+00 -7.454667e+01 3.521086e-14
    endloop
  endfacet
  facet normal -3.544952e-16 1.321399e-17 -1.000000e+00
    outer loop
      vertex   -3.463878e+01 -7.270741e+01 4.440892e-14
      vertex   -8.760422e+00 -7.454667e+01 3.521086e-14
      vertex   -8.981339e+00 -7.550775e+01 3.527648e-14
    endloop
  endfacet
  facet normal -3.532876e-16 2.427781e-17 -1.000000e+00
    outer loop
      vertex   -8.981339e+00 -7.550775e+01 3.527648e-14
      vertex   -9.236572e+00 -7.646030e+01 3.534352e-14
      vertex   -3.463878e+01 -7.270741e+01 4.440892e-14
    endloop
  endfacet
  facet normal -3.516536e-16 3.533808e-17 -1.000000e+00
    outer loop
      vertex   -3.463878e+01 -7.270741e+01 4.440892e-14
      vertex   -9.236572e+00 -7.646030e+01 3.534352e-14
      vertex   -9.525794e+00 -7.740308e+01 3.541191e-14
    endloop
  endfacet
  facet normal -3.495895e-16 4.637698e-17 -1.000000e+00
    outer loop
      vertex   -3.463878e+01 -7.270741e+01 4.440892e-14
      vertex   -9.525794e+00 -7.740308e+01 3.541191e-14
      vertex   -9.848633e+00 -7.833488e+01 3.548156e-14
    endloop
  endfacet
  facet normal -6.375174e-16 -1.222004e-15 -1.000000e+00
    outer loop
      vertex   -9.848633e+00 -7.833488e+01 3.548156e-14
      vertex   -1.020467e+01 -7.925451e+01 3.683233e-14
      vertex   -3.463878e+01 -7.270741e+01 4.440892e-14
    endloop
  endfacet
  facet normal -2.255828e-16 6.074762e-16 -1.000000e+00
    outer loop
      vertex   -5.252579e+01 -9.059442e+01 3.757799e-14
      vertex   -5.329395e+01 -8.997602e+01 3.812694e-14
      vertex   -3.463878e+01 -7.270741e+01 4.440892e-14
    endloop
  endfacet
  facet normal 9.562427e-17 2.604783e-16 -1.000000e+00
    outer loop
      vertex   -3.463878e+01 -7.270741e+01 4.440892e-14
      vertex   -5.329395e+01 -8.997602e+01 3.812694e-14
      vertex   -5.403944e+01 -8.933047e+01 3.822380e-14
    endloop
  endfacet
  facet normal 1.029349e-16 2.519461e-16 -1.000000e+00
    outer loop
      vertex   -3.463878e+01 -7.270741e+01 4.440892e-14
      vertex   -5.403944e+01 -8.933047e+01 3.822380e-14
      vertex   -5.476130e+01 -8.865861e+01 3.831877e-14
    endloop
  endfacet
  facet normal 1.098836e-16 2.431803e-16 -1.000000e+00
    outer loop
      vertex   -5.476130e+01 -8.865861e+01 3.831877e-14
      vertex   -5.545861e+01 -8.796130e+01 3.841172e-14
      vertex   -3.463878e+01 -7.270741e+01 4.440892e-14
    endloop
  endfacet
  facet normal 1.164646e-16 2.341980e-16 -1.000000e+00
    outer loop
      vertex   -3.463878e+01 -7.270741e+01 4.440892e-14
      vertex   -5.545861e+01 -8.796130e+01 3.841172e-14
      vertex   -5.613047e+01 -8.723944e+01 3.850253e-14
    endloop
  endfacet
  facet normal 1.226728e-16 2.250165e-16 -1.000000e+00
    outer loop
      vertex   -3.463878e+01 -7.270741e+01 4.440892e-14
      vertex   -5.613047e+01 -8.723944e+01 3.850253e-14
      vertex   -5.677602e+01 -8.649395e+01 3.859109e-14
    endloop
  endfacet
  facet normal -5.626783e-16 1.325495e-15 -1.000000e+00
    outer loop
      vertex   -5.677602e+01 -8.649395e+01 3.859109e-14
      vertex   -5.739442e+01 -8.572579e+01 3.995723e-14
      vertex   -3.463878e+01 -7.270741e+01 4.440892e-14
    endloop
  endfacet
  facet normal 7.883087e-16 -1.035980e-15 -1.000000e+00
    outer loop
      vertex   -3.463878e+01 -7.270741e+01 4.440892e-14
      vertex   -5.739442e+01 -8.572579e+01 3.995723e-14
      vertex   -3.950741e+01 -6.783878e+01 3.552714e-14
    endloop
  endfacet
  facet normal 1.360530e-16 -5.223552e-16 -1.000000e+00
    outer loop
      vertex   -4.326030e+01 -4.243657e+01 3.065537e-14
      vertex   -4.230775e+01 -4.218134e+01 3.065164e-14
      vertex   -3.285674e+01 -6.605674e+01 4.440892e-14
    endloop
  endfacet
  facet normal 1.167551e-16 -5.299942e-16 -1.000000e+00
    outer loop
      vertex   -3.285674e+01 -6.605674e+01 4.440892e-14
      vertex   -4.230775e+01 -4.218134e+01 3.065164e-14
      vertex   -4.134667e+01 -4.196042e+01 3.064677e-14
    endloop
  endfacet
  facet normal 9.709250e-17 -5.369220e-16 -1.000000e+00
    outer loop
      vertex   -3.285674e+01 -6.605674e+01 4.440892e-14
      vertex   -4.134667e+01 -4.196042e+01 3.064677e-14
      vertex   -4.037829e+01 -4.177411e+01 3.064076e-14
    endloop
  endfacet
  facet normal 1.330280e-15 -1.549423e-16 -1.000000e+00
    outer loop
      vertex   -4.037829e+01 -4.177411e+01 3.064076e-14
      vertex   -3.940384e+01 -4.162263e+01 3.191357e-14
      vertex   -3.285674e+01 -6.605674e+01 4.440892e-14
    endloop
  endfacet
endsolid
